G04*
G04 #@! TF.GenerationSoftware,Altium Limited,Altium Designer,23.5.1 (21)*
G04*
G04 Layer_Color=16711935*
%FSLAX25Y25*%
%MOIN*%
G70*
G04*
G04 #@! TF.SameCoordinates,FF9463CB-EB02-43C4-9E9F-CA5E416C3207*
G04*
G04*
G04 #@! TF.FilePolarity,Positive*
G04*
G01*
G75*
%ADD11C,0.00787*%
%ADD12C,0.01000*%
D11*
X810777Y222458D02*
X817458Y215777D01*
X792542Y204223D02*
X810777Y222458D01*
X792542Y204223D02*
X799223Y197542D01*
X817458Y215777D01*
X843224Y207043D02*
Y224957D01*
X833776Y207043D02*
X843224D01*
X833776D02*
Y224957D01*
X843224D01*
X753776Y198543D02*
Y216457D01*
X763224D01*
Y198543D02*
Y216457D01*
X753776Y198543D02*
X763224D01*
X798809Y147282D02*
X856795Y187884D01*
X959056Y41840D01*
X901071Y1238D02*
X959056Y41840D01*
X798809Y147282D02*
X901071Y1238D01*
D12*
X630000Y220000D02*
Y245000D01*
Y270000D01*
X570000D02*
X630000D01*
X570000Y220000D02*
Y270000D01*
Y220000D02*
X630000D01*
X630239Y326817D02*
X632827Y336476D01*
X700442Y318359D01*
X697854Y308700D02*
X700442Y318359D01*
X630239Y326817D02*
X697854Y308700D01*
X300000Y255000D02*
Y320000D01*
Y255000D02*
X380000D01*
Y320000D01*
X300000D02*
X380000D01*
X722704Y279420D02*
X778995Y246920D01*
X722704Y279420D02*
X735204Y301071D01*
X791495Y268571D01*
X778995Y246920D02*
X791495Y268571D01*
X222893Y211686D02*
X265026Y176333D01*
X194319Y92068D02*
X265026Y176333D01*
X110054Y162774D02*
X194319Y92068D01*
X110054Y162774D02*
X180761Y247039D01*
X222893Y211686D01*
M02*
