M48
;Layer_Color=9474304
;FILE_FORMAT=2:4
INCH,TZ
;TYPE=PLATED
T1F00S00C0.0315
T2F00S00C0.0350
T3F00S00C0.0360
T4F00S00C0.0400
T5F00S00C0.1500
T6F00S00C0.2000
%
T01
X79943Y20443
X80500Y21000
X81057Y21557
T02
X83850Y21206
X75850Y21144
Y20356
X72500Y23150
X83850Y21994
T03
X89236Y2308
X88662Y3128
X88089Y3947
X87515Y4766
X86941Y5585
X94151Y5750
X93577Y6569
X93004Y7388
X92430Y8207
X91856Y9027
X91283Y9846
X90709Y10665
X90136Y11484
X89562Y12303
X88988Y13122
X88415Y13941
X87841Y14761
X87268Y15580
X86694Y16399
X86121Y17218
X81206Y13777
X81779Y12957
X82353Y12138
X82926Y11319
X83500Y10500
X84074Y9681
X84647Y8862
X85221Y8043
X85794Y7223
X86368Y6404
T04
X21968Y20786
X22734Y20143
X23500Y19500
X21202Y21428
X20436Y22071
X30500Y31500
X31500
X32500
X33500
X34500
X35500
X36500
X37500
X63636Y33035
X64602Y32776
X65568Y32518
X66534Y32259
X67500Y32000
X68466Y31741
X69432Y31482
X67900Y26650
X62500Y26500
Y25500
Y24500
Y23500
Y22500
X73170Y28000
X74036Y27500
X74902Y27000
X75768Y26500
X76634Y26000
X77500Y25500
T05
X41250Y33500
X58750
T06
X71000Y20690
X29000
M30
