G04*
G04 #@! TF.GenerationSoftware,Altium Limited,Altium Designer,23.5.1 (21)*
G04*
G04 Layer_Color=128*
%FSLAX25Y25*%
%MOIN*%
G70*
G04*
G04 #@! TF.SameCoordinates,FF9463CB-EB02-43C4-9E9F-CA5E416C3207*
G04*
G04*
G04 #@! TF.FilePolarity,Positive*
G04*
G01*
G75*
%ADD29C,0.00500*%
D29*
X797857Y204432D02*
X801007D01*
X799432Y202857D02*
Y206007D01*
X803425Y210000D02*
X806575D01*
X805000Y208425D02*
Y211575D01*
X808993Y215568D02*
X812143D01*
X810568Y213993D02*
Y217143D01*
X836750Y219937D02*
X840250D01*
X838500Y218187D02*
Y221687D01*
X836750Y212063D02*
X840250D01*
X838500Y210313D02*
Y213813D01*
X756750Y203563D02*
X760250D01*
X758500Y201813D02*
Y205313D01*
X756750Y211437D02*
X760250D01*
X758500Y209687D02*
Y213187D01*
X623000Y265000D02*
X627000D01*
X625000Y263000D02*
Y267000D01*
X623000Y255000D02*
X627000D01*
X625000Y253000D02*
Y257000D01*
X623000Y245000D02*
X627000D01*
X625000Y243000D02*
Y247000D01*
X623000Y235000D02*
X627000D01*
X625000Y233000D02*
Y237000D01*
X623000Y225000D02*
X627000D01*
X625000Y223000D02*
Y227000D01*
X634363Y330353D02*
X638363D01*
X636363Y328353D02*
Y332353D01*
X644022Y327765D02*
X648022D01*
X646022Y325765D02*
Y329765D01*
X653681Y325176D02*
X657681D01*
X655681Y323176D02*
Y327176D01*
X663341Y322588D02*
X667341D01*
X665341Y320588D02*
Y324588D01*
X673000Y320000D02*
X677000D01*
X675000Y318000D02*
Y322000D01*
X682659Y317412D02*
X686659D01*
X684659Y315412D02*
Y319412D01*
X692319Y314824D02*
X696319D01*
X694319Y312824D02*
Y316824D01*
X373000Y315000D02*
X377000D01*
X375000Y313000D02*
Y317000D01*
X363000Y315000D02*
X367000D01*
X365000Y313000D02*
Y317000D01*
X353000Y315000D02*
X357000D01*
X355000Y313000D02*
Y317000D01*
X343000Y315000D02*
X347000D01*
X345000Y313000D02*
Y317000D01*
X333000Y315000D02*
X337000D01*
X335000Y313000D02*
Y317000D01*
X323000Y315000D02*
X327000D01*
X325000Y313000D02*
Y317000D01*
X313000Y315000D02*
X317000D01*
X315000Y313000D02*
Y317000D01*
X303000Y315000D02*
X307000D01*
X305000Y313000D02*
Y317000D01*
X810258Y137766D02*
X813856D01*
X812057Y135967D02*
Y139565D01*
X815994Y129575D02*
X819592D01*
X817793Y127775D02*
Y131374D01*
X821729Y121383D02*
X825328D01*
X823528Y119584D02*
Y123182D01*
X827465Y113192D02*
X831063D01*
X829264Y111392D02*
Y114991D01*
X833201Y105000D02*
X836799D01*
X835000Y103201D02*
Y106799D01*
X838937Y96808D02*
X842535D01*
X840736Y95009D02*
Y98608D01*
X844672Y88617D02*
X848271D01*
X846472Y86818D02*
Y90416D01*
X850408Y80425D02*
X854007D01*
X852207Y78626D02*
Y82225D01*
X856144Y72234D02*
X859742D01*
X857943Y70435D02*
Y74033D01*
X861880Y64042D02*
X865478D01*
X863679Y62243D02*
Y65842D01*
X867615Y55851D02*
X871214D01*
X869415Y54052D02*
Y57650D01*
X873351Y47659D02*
X876950D01*
X875150Y45860D02*
Y49459D01*
X879087Y39468D02*
X882685D01*
X880886Y37669D02*
Y41267D01*
X884823Y31276D02*
X888421D01*
X886622Y29477D02*
Y33076D01*
X890558Y23085D02*
X894157D01*
X892358Y21286D02*
Y24884D01*
X939708Y57499D02*
X943306D01*
X941507Y55700D02*
Y59299D01*
X933972Y65691D02*
X937570D01*
X935771Y63892D02*
Y67490D01*
X928236Y73882D02*
X931834D01*
X930035Y72083D02*
Y75682D01*
X922500Y82074D02*
X926099D01*
X924299Y80275D02*
Y83873D01*
X916765Y90265D02*
X920363D01*
X918564Y88466D02*
Y92065D01*
X911029Y98457D02*
X914627D01*
X912828Y96658D02*
Y100256D01*
X905293Y106649D02*
X908891D01*
X907092Y104849D02*
Y108448D01*
X899557Y114840D02*
X903156D01*
X901356Y113041D02*
Y116639D01*
X893821Y123032D02*
X897420D01*
X895621Y121232D02*
Y124831D01*
X888086Y131223D02*
X891684D01*
X889885Y129424D02*
Y133022D01*
X882350Y139415D02*
X885948D01*
X884149Y137615D02*
Y141214D01*
X876614Y147606D02*
X880213D01*
X878413Y145807D02*
Y149405D01*
X870878Y155798D02*
X874477D01*
X872678Y153998D02*
Y157597D01*
X865143Y163989D02*
X868741D01*
X866942Y162190D02*
Y165788D01*
X859407Y172181D02*
X863005D01*
X861206Y170381D02*
Y173980D01*
X729699Y280000D02*
X733699D01*
X731699Y278000D02*
Y282000D01*
X738359Y275000D02*
X742359D01*
X740359Y273000D02*
Y277000D01*
X747019Y270000D02*
X751019D01*
X749019Y268000D02*
Y272000D01*
X755679Y265000D02*
X759679D01*
X757679Y263000D02*
Y267000D01*
X764340Y260000D02*
X768340D01*
X766340Y258000D02*
Y262000D01*
X773000Y255000D02*
X777000D01*
X775000Y253000D02*
Y257000D01*
X233000Y195000D02*
X237000D01*
X235000Y193000D02*
Y197000D01*
X225340Y201428D02*
X229340D01*
X227340Y199428D02*
Y203428D01*
X217679Y207856D02*
X221679D01*
X219679Y205856D02*
Y209856D01*
X210019Y214284D02*
X214019D01*
X212019Y212284D02*
Y216284D01*
X202358Y220711D02*
X206358D01*
X204358Y218711D02*
Y222711D01*
X700000Y206900D02*
X720000D01*
X710000Y196900D02*
Y216900D01*
X280000Y206900D02*
X300000D01*
X290000Y196900D02*
Y216900D01*
X405000Y335000D02*
X420000D01*
X412500Y327500D02*
Y342500D01*
X580000Y335000D02*
X595000D01*
X587500Y327500D02*
Y342500D01*
X677000Y266500D02*
X681000D01*
X679000Y264500D02*
Y268500D01*
X723250Y231500D02*
X726750D01*
X725000Y229750D02*
Y233250D01*
M02*
