G04*
G04 #@! TF.GenerationSoftware,Altium Limited,Altium Designer,23.5.1 (21)*
G04*
G04 Layer_Color=2752767*
%FSLAX25Y25*%
%MOIN*%
G70*
G04*
G04 #@! TF.SameCoordinates,FF9463CB-EB02-43C4-9E9F-CA5E416C3207*
G04*
G04*
G04 #@! TF.FilePolarity,Positive*
G04*
G01*
G75*
%ADD12C,0.01000*%
%ADD29C,0.00500*%
%ADD30C,0.01500*%
%ADD31C,0.01600*%
D12*
X13396Y551083D02*
G03*
X13396Y551083I-3333J0D01*
G01*
X8396Y534417D02*
X10063Y532750D01*
X6729Y534417D02*
X8396D01*
X6729D02*
X8396Y536083D01*
X6729Y537750D02*
X8396Y536083D01*
X6729Y537750D02*
X8396D01*
X10063Y539417D01*
X11729Y537750D01*
X13396D01*
X11729Y536083D02*
X13396Y537750D01*
X11729Y536083D02*
X13396Y534417D01*
X11729D02*
X13396D01*
X10063Y532750D02*
X11729Y534417D01*
X6729Y517750D02*
X10063Y519417D01*
X13396Y517750D01*
X11729Y521083D02*
X13396Y517750D01*
X11729Y521083D02*
X13396Y524417D01*
X10063Y522750D02*
X13396Y524417D01*
X6729D02*
X10063Y522750D01*
X6729Y524417D02*
X8396Y521083D01*
X6729Y517750D02*
X8396Y521083D01*
X6729Y504417D02*
X8396D01*
X6729D02*
Y507750D01*
X8396D01*
Y509417D01*
X11729D01*
Y507750D02*
Y509417D01*
Y507750D02*
X13396D01*
Y504417D02*
Y507750D01*
X11729Y504417D02*
X13396D01*
X11729Y502750D02*
Y504417D01*
X8396Y502750D02*
X11729D01*
X8396D02*
Y504417D01*
X6729Y487750D02*
X13396D01*
Y494417D01*
X6729D02*
X13396D01*
X6729Y487750D02*
Y494417D01*
X10063Y472750D02*
X13396Y479417D01*
X6729D02*
X13396D01*
X6729D02*
X10063Y472750D01*
X641776Y551749D02*
X638777D01*
X637777Y550749D01*
Y548750D01*
X638777Y547750D01*
X641776D01*
X643775D02*
X645775D01*
X644775D01*
Y553748D01*
X643775Y552748D01*
X652772Y553748D02*
X648774D01*
Y550749D01*
X650773Y551749D01*
X651773D01*
X652772Y550749D01*
Y548750D01*
X651773Y547750D01*
X649773D01*
X648774Y548750D01*
X658770Y547750D02*
X654772D01*
X658770Y551749D01*
Y552748D01*
X657771Y553748D01*
X655771D01*
X654772Y552748D01*
X660770Y553748D02*
Y547750D01*
Y550749D01*
X661769Y551749D01*
X663769D01*
X664769Y550749D01*
Y547750D01*
X666768Y552748D02*
X667767Y553748D01*
X669767D01*
X670766Y552748D01*
Y551749D01*
X669767Y550749D01*
X668767D01*
X669767D01*
X670766Y549749D01*
Y548750D01*
X669767Y547750D01*
X667767D01*
X666768Y548750D01*
X672766Y552748D02*
X673766Y553748D01*
X675765D01*
X676765Y552748D01*
Y551749D01*
X675765Y550749D01*
X676765Y549749D01*
Y548750D01*
X675765Y547750D01*
X673766D01*
X672766Y548750D01*
Y549749D01*
X673766Y550749D01*
X672766Y551749D01*
Y552748D01*
X673766Y550749D02*
X675765D01*
X678764Y547750D02*
X680763D01*
X679764D01*
Y553748D01*
X678764Y552748D01*
X683762Y547750D02*
Y551749D01*
X684762D01*
X685762Y550749D01*
Y547750D01*
Y550749D01*
X686761Y551749D01*
X687761Y550749D01*
Y547750D01*
X689760D02*
X691760D01*
X690760D01*
Y553748D01*
X689760Y552748D01*
X698758Y553748D02*
X694759D01*
Y550749D01*
X696758Y551749D01*
X697758D01*
X698758Y550749D01*
Y548750D01*
X697758Y547750D01*
X695758D01*
X694759Y548750D01*
X704755Y553748D02*
X700757D01*
Y550749D01*
X702756Y551749D01*
X703756D01*
X704755Y550749D01*
Y548750D01*
X703756Y547750D01*
X701756D01*
X700757Y548750D01*
X706755Y547750D02*
Y551749D01*
X707755D01*
X708754Y550749D01*
Y547750D01*
Y550749D01*
X709754Y551749D01*
X710754Y550749D01*
Y547750D01*
X712753Y551749D02*
X716752Y547750D01*
X714752Y549749D01*
X716752Y551749D01*
X712753Y547750D01*
X718751D02*
X720750D01*
X719751D01*
Y553748D01*
X718751Y552748D01*
X727748Y553748D02*
X723749D01*
Y550749D01*
X725749Y551749D01*
X726748D01*
X727748Y550749D01*
Y548750D01*
X726748Y547750D01*
X724749D01*
X723749Y548750D01*
X732747Y547750D02*
Y553748D01*
X729747Y550749D01*
X733746D01*
X641776Y536749D02*
X638777D01*
X637777Y535749D01*
Y533750D01*
X638777Y532750D01*
X641776D01*
X643775D02*
X645775D01*
X644775D01*
Y538748D01*
X643775Y537748D01*
X652772Y538748D02*
X648774D01*
Y535749D01*
X650773Y536749D01*
X651773D01*
X652772Y535749D01*
Y533750D01*
X651773Y532750D01*
X649773D01*
X648774Y533750D01*
X658770Y532750D02*
X654772D01*
X658770Y536749D01*
Y537748D01*
X657771Y538748D01*
X655771D01*
X654772Y537748D01*
X660770Y538748D02*
Y532750D01*
Y535749D01*
X661769Y536749D01*
X663769D01*
X664769Y535749D01*
Y532750D01*
X670766Y538748D02*
X666768D01*
Y535749D01*
X668767Y536749D01*
X669767D01*
X670766Y535749D01*
Y533750D01*
X669767Y532750D01*
X667767D01*
X666768Y533750D01*
X672766Y537748D02*
X673766Y538748D01*
X675765D01*
X676765Y537748D01*
Y533750D01*
X675765Y532750D01*
X673766D01*
X672766Y533750D01*
Y537748D01*
X678764D02*
X679764Y538748D01*
X681763D01*
X682763Y537748D01*
Y536749D01*
X681763Y535749D01*
X682763Y534749D01*
Y533750D01*
X681763Y532750D01*
X679764D01*
X678764Y533750D01*
Y534749D01*
X679764Y535749D01*
X678764Y536749D01*
Y537748D01*
X679764Y535749D02*
X681763D01*
X639777Y517750D02*
X637777Y519749D01*
Y521749D01*
X639777Y523748D01*
X642776Y517750D02*
Y523748D01*
X644775Y521749D01*
X646774Y523748D01*
Y517750D01*
X648774D02*
X650773D01*
X649773D01*
Y521749D01*
X648774D01*
X653772D02*
X657771Y517750D01*
X655771Y519749D01*
X657771Y521749D01*
X653772Y517750D01*
X662769D02*
X660770D01*
X659770Y518750D01*
Y520749D01*
X660770Y521749D01*
X662769D01*
X663769Y520749D01*
Y519749D01*
X659770D01*
X669767Y523748D02*
Y517750D01*
X666768D01*
X665768Y518750D01*
Y520749D01*
X666768Y521749D01*
X669767D01*
X671766Y517750D02*
X673766Y519749D01*
Y521749D01*
X671766Y523748D01*
X639777Y502750D02*
X637777Y504749D01*
Y506749D01*
X639777Y508748D01*
X642776Y502750D02*
Y508748D01*
X644775Y506749D01*
X646774Y508748D01*
Y502750D01*
X648774D02*
X650773D01*
X649773D01*
Y506749D01*
X648774D01*
X653772D02*
X657771Y502750D01*
X655771Y504749D01*
X657771Y506749D01*
X653772Y502750D01*
X662769D02*
X660770D01*
X659770Y503750D01*
Y505749D01*
X660770Y506749D01*
X662769D01*
X663769Y505749D01*
Y504749D01*
X659770D01*
X669767Y508748D02*
Y502750D01*
X666768D01*
X665768Y503750D01*
Y505749D01*
X666768Y506749D01*
X669767D01*
X671766Y502750D02*
X673766Y504749D01*
Y506749D01*
X671766Y508748D01*
X639777Y487750D02*
X637777Y489749D01*
Y491749D01*
X639777Y493748D01*
X642776Y487750D02*
Y493748D01*
X644775Y491749D01*
X646774Y493748D01*
Y487750D01*
X648774D02*
X650773D01*
X649773D01*
Y491749D01*
X648774D01*
X653772D02*
X657771Y487750D01*
X655771Y489749D01*
X657771Y491749D01*
X653772Y487750D01*
X662769D02*
X660770D01*
X659770Y488750D01*
Y490749D01*
X660770Y491749D01*
X662769D01*
X663769Y490749D01*
Y489749D01*
X659770D01*
X669767Y493748D02*
Y487750D01*
X666768D01*
X665768Y488750D01*
Y490749D01*
X666768Y491749D01*
X669767D01*
X671766Y487750D02*
X673766Y489749D01*
Y491749D01*
X671766Y493748D01*
X639777Y472750D02*
X637777Y474749D01*
Y476749D01*
X639777Y478748D01*
X642776Y472750D02*
Y478748D01*
X644775Y476749D01*
X646774Y478748D01*
Y472750D01*
X648774D02*
X650773D01*
X649773D01*
Y476749D01*
X648774D01*
X653772D02*
X657771Y472750D01*
X655771Y474749D01*
X657771Y476749D01*
X653772Y472750D01*
X662769D02*
X660770D01*
X659770Y473750D01*
Y475749D01*
X660770Y476749D01*
X662769D01*
X663769Y475749D01*
Y474749D01*
X659770D01*
X669767Y478748D02*
Y472750D01*
X666768D01*
X665768Y473750D01*
Y475749D01*
X666768Y476749D01*
X669767D01*
X671766Y472750D02*
X673766Y474749D01*
Y476749D01*
X671766Y478748D01*
X563197Y547750D02*
Y553748D01*
X566196D01*
X567196Y552748D01*
Y550749D01*
X566196Y549749D01*
X563197D01*
X565197D02*
X567196Y547750D01*
X570195D02*
X572194D01*
X573194Y548750D01*
Y550749D01*
X572194Y551749D01*
X570195D01*
X569195Y550749D01*
Y548750D01*
X570195Y547750D01*
X575194Y551749D02*
Y548750D01*
X576193Y547750D01*
X579192D01*
Y551749D01*
X581192Y547750D02*
Y551749D01*
X584191D01*
X585190Y550749D01*
Y547750D01*
X591188Y553748D02*
Y547750D01*
X588189D01*
X587190Y548750D01*
Y550749D01*
X588189Y551749D01*
X591188D01*
X596187Y547750D02*
X594187D01*
X593188Y548750D01*
Y550749D01*
X594187Y551749D01*
X596187D01*
X597186Y550749D01*
Y549749D01*
X593188D01*
X603185Y553748D02*
Y547750D01*
X600185D01*
X599186Y548750D01*
Y550749D01*
X600185Y551749D01*
X603185D01*
X563197Y532750D02*
Y538748D01*
X566196D01*
X567196Y537748D01*
Y535749D01*
X566196Y534749D01*
X563197D01*
X565197D02*
X567196Y532750D01*
X570195D02*
X572194D01*
X573194Y533750D01*
Y535749D01*
X572194Y536749D01*
X570195D01*
X569195Y535749D01*
Y533750D01*
X570195Y532750D01*
X575194Y536749D02*
Y533750D01*
X576193Y532750D01*
X579192D01*
Y536749D01*
X581192Y532750D02*
Y536749D01*
X584191D01*
X585190Y535749D01*
Y532750D01*
X591188Y538748D02*
Y532750D01*
X588189D01*
X587190Y533750D01*
Y535749D01*
X588189Y536749D01*
X591188D01*
X596187Y532750D02*
X594187D01*
X593188Y533750D01*
Y535749D01*
X594187Y536749D01*
X596187D01*
X597186Y535749D01*
Y534749D01*
X593188D01*
X603185Y538748D02*
Y532750D01*
X600185D01*
X599186Y533750D01*
Y535749D01*
X600185Y536749D01*
X603185D01*
X565197Y517750D02*
X563197Y519749D01*
Y521749D01*
X565197Y523748D01*
X568196Y517750D02*
Y523748D01*
X570195Y521749D01*
X572194Y523748D01*
Y517750D01*
X574194D02*
X576193D01*
X575194D01*
Y521749D01*
X574194D01*
X579192D02*
X583191Y517750D01*
X581192Y519749D01*
X583191Y521749D01*
X579192Y517750D01*
X588189D02*
X586190D01*
X585190Y518750D01*
Y520749D01*
X586190Y521749D01*
X588189D01*
X589189Y520749D01*
Y519749D01*
X585190D01*
X595187Y523748D02*
Y517750D01*
X592188D01*
X591188Y518750D01*
Y520749D01*
X592188Y521749D01*
X595187D01*
X597186Y517750D02*
X599186Y519749D01*
Y521749D01*
X597186Y523748D01*
X565197Y502750D02*
X563197Y504749D01*
Y506749D01*
X565197Y508748D01*
X568196Y502750D02*
Y508748D01*
X570195Y506749D01*
X572194Y508748D01*
Y502750D01*
X574194D02*
X576193D01*
X575194D01*
Y506749D01*
X574194D01*
X579192D02*
X583191Y502750D01*
X581192Y504749D01*
X583191Y506749D01*
X579192Y502750D01*
X588189D02*
X586190D01*
X585190Y503750D01*
Y505749D01*
X586190Y506749D01*
X588189D01*
X589189Y505749D01*
Y504749D01*
X585190D01*
X595187Y508748D02*
Y502750D01*
X592188D01*
X591188Y503750D01*
Y505749D01*
X592188Y506749D01*
X595187D01*
X597186Y502750D02*
X599186Y504749D01*
Y506749D01*
X597186Y508748D01*
X565197Y487750D02*
X563197Y489749D01*
Y491749D01*
X565197Y493748D01*
X568196Y487750D02*
Y493748D01*
X570195Y491749D01*
X572194Y493748D01*
Y487750D01*
X574194D02*
X576193D01*
X575194D01*
Y491749D01*
X574194D01*
X579192D02*
X583191Y487750D01*
X581192Y489749D01*
X583191Y491749D01*
X579192Y487750D01*
X588189D02*
X586190D01*
X585190Y488750D01*
Y490749D01*
X586190Y491749D01*
X588189D01*
X589189Y490749D01*
Y489749D01*
X585190D01*
X595187Y493748D02*
Y487750D01*
X592188D01*
X591188Y488750D01*
Y490749D01*
X592188Y491749D01*
X595187D01*
X597186Y487750D02*
X599186Y489749D01*
Y491749D01*
X597186Y493748D01*
X563197Y472750D02*
Y478748D01*
X566196D01*
X567196Y477748D01*
Y475749D01*
X566196Y474749D01*
X563197D01*
X565197D02*
X567196Y472750D01*
X570195D02*
X572194D01*
X573194Y473750D01*
Y475749D01*
X572194Y476749D01*
X570195D01*
X569195Y475749D01*
Y473750D01*
X570195Y472750D01*
X575194Y476749D02*
Y473750D01*
X576193Y472750D01*
X579192D01*
Y476749D01*
X581192Y472750D02*
Y476749D01*
X584191D01*
X585190Y475749D01*
Y472750D01*
X591188Y478748D02*
Y472750D01*
X588189D01*
X587190Y473750D01*
Y475749D01*
X588189Y476749D01*
X591188D01*
X596187Y472750D02*
X594187D01*
X593188Y473750D01*
Y475749D01*
X594187Y476749D01*
X596187D01*
X597186Y475749D01*
Y474749D01*
X593188D01*
X603185Y478748D02*
Y472750D01*
X600185D01*
X599186Y473750D01*
Y475749D01*
X600185Y476749D01*
X603185D01*
X504213Y547750D02*
Y553748D01*
X507211D01*
X508211Y552748D01*
Y550749D01*
X507211Y549749D01*
X504213D01*
X511210Y551749D02*
X513210D01*
X514209Y550749D01*
Y547750D01*
X511210D01*
X510211Y548750D01*
X511210Y549749D01*
X514209D01*
X520207Y553748D02*
Y547750D01*
X517208D01*
X516209Y548750D01*
Y550749D01*
X517208Y551749D01*
X520207D01*
X504213Y532750D02*
Y538748D01*
X507211D01*
X508211Y537748D01*
Y535749D01*
X507211Y534749D01*
X504213D01*
X511210Y536749D02*
X513210D01*
X514209Y535749D01*
Y532750D01*
X511210D01*
X510211Y533750D01*
X511210Y534749D01*
X514209D01*
X520207Y538748D02*
Y532750D01*
X517208D01*
X516209Y533750D01*
Y535749D01*
X517208Y536749D01*
X520207D01*
X504213Y517750D02*
Y523748D01*
X507211D01*
X508211Y522748D01*
Y520749D01*
X507211Y519749D01*
X504213D01*
X511210Y521749D02*
X513210D01*
X514209Y520749D01*
Y517750D01*
X511210D01*
X510211Y518750D01*
X511210Y519749D01*
X514209D01*
X520207Y523748D02*
Y517750D01*
X517208D01*
X516209Y518750D01*
Y520749D01*
X517208Y521749D01*
X520207D01*
X506212Y502750D02*
X504213Y504749D01*
Y506749D01*
X506212Y508748D01*
X509211Y502750D02*
Y508748D01*
X511210Y506749D01*
X513210Y508748D01*
Y502750D01*
X515209D02*
X517208D01*
X516209D01*
Y506749D01*
X515209D01*
X520207D02*
X524206Y502750D01*
X522207Y504749D01*
X524206Y506749D01*
X520207Y502750D01*
X529204D02*
X527205D01*
X526205Y503750D01*
Y505749D01*
X527205Y506749D01*
X529204D01*
X530204Y505749D01*
Y504749D01*
X526205D01*
X536202Y508748D02*
Y502750D01*
X533203D01*
X532203Y503750D01*
Y505749D01*
X533203Y506749D01*
X536202D01*
X538202Y502750D02*
X540201Y504749D01*
Y506749D01*
X538202Y508748D01*
X504213Y487750D02*
Y493748D01*
X507211D01*
X508211Y492748D01*
Y490749D01*
X507211Y489749D01*
X504213D01*
X511210Y491749D02*
X513210D01*
X514209Y490749D01*
Y487750D01*
X511210D01*
X510211Y488750D01*
X511210Y489749D01*
X514209D01*
X520207Y493748D02*
Y487750D01*
X517208D01*
X516209Y488750D01*
Y490749D01*
X517208Y491749D01*
X520207D01*
X506212Y472750D02*
X504213Y474749D01*
Y476749D01*
X506212Y478748D01*
X509211Y472750D02*
Y478748D01*
X511210Y476749D01*
X513210Y478748D01*
Y472750D01*
X515209D02*
X517208D01*
X516209D01*
Y476749D01*
X515209D01*
X520207D02*
X524206Y472750D01*
X522207Y474749D01*
X524206Y476749D01*
X520207Y472750D01*
X529204D02*
X527205D01*
X526205Y473750D01*
Y475749D01*
X527205Y476749D01*
X529204D01*
X530204Y475749D01*
Y474749D01*
X526205D01*
X536202Y478748D02*
Y472750D01*
X533203D01*
X532203Y473750D01*
Y475749D01*
X533203Y476749D01*
X536202D01*
X538202Y472750D02*
X540201Y474749D01*
Y476749D01*
X538202Y478748D01*
X354257Y553748D02*
X358256D01*
X356257D01*
Y547750D01*
X361255D02*
X363255D01*
X364254Y548750D01*
Y550749D01*
X363255Y551749D01*
X361255D01*
X360256Y550749D01*
Y548750D01*
X361255Y547750D01*
X366254Y545751D02*
Y551749D01*
X369253D01*
X370252Y550749D01*
Y548750D01*
X369253Y547750D01*
X366254D01*
X378250Y553748D02*
Y547750D01*
X382248D01*
X385247Y551749D02*
X387247D01*
X388246Y550749D01*
Y547750D01*
X385247D01*
X384248Y548750D01*
X385247Y549749D01*
X388246D01*
X390246Y551749D02*
Y548750D01*
X391246Y547750D01*
X394245D01*
Y546750D01*
X393245Y545751D01*
X392245D01*
X394245Y547750D02*
Y551749D01*
X399243Y547750D02*
X397244D01*
X396244Y548750D01*
Y550749D01*
X397244Y551749D01*
X399243D01*
X400243Y550749D01*
Y549749D01*
X396244D01*
X402242Y551749D02*
Y547750D01*
Y549749D01*
X403242Y550749D01*
X404241Y551749D01*
X405241D01*
X414238Y550749D02*
X418237D01*
X426234Y553748D02*
Y547750D01*
X429233D01*
X430233Y548750D01*
Y549749D01*
X429233Y550749D01*
X426234D01*
X429233D01*
X430233Y551749D01*
Y552748D01*
X429233Y553748D01*
X426234D01*
X433232Y547750D02*
X435231D01*
X436231Y548750D01*
Y550749D01*
X435231Y551749D01*
X433232D01*
X432232Y550749D01*
Y548750D01*
X433232Y547750D01*
X439230Y552748D02*
Y551749D01*
X438230D01*
X440230D01*
X439230D01*
Y548750D01*
X440230Y547750D01*
X444228Y552748D02*
Y551749D01*
X443229D01*
X445228D01*
X444228D01*
Y548750D01*
X445228Y547750D01*
X449227D02*
X451226D01*
X452226Y548750D01*
Y550749D01*
X451226Y551749D01*
X449227D01*
X448227Y550749D01*
Y548750D01*
X449227Y547750D01*
X454225D02*
Y551749D01*
X455225D01*
X456224Y550749D01*
Y547750D01*
Y550749D01*
X457224Y551749D01*
X458224Y550749D01*
Y547750D01*
X466221Y553748D02*
Y547750D01*
X470220D01*
X473219Y551749D02*
X475218D01*
X476218Y550749D01*
Y547750D01*
X473219D01*
X472219Y548750D01*
X473219Y549749D01*
X476218D01*
X478217Y551749D02*
Y548750D01*
X479217Y547750D01*
X482216D01*
Y546750D01*
X481216Y545751D01*
X480217D01*
X482216Y547750D02*
Y551749D01*
X487215Y547750D02*
X485215D01*
X484215Y548750D01*
Y550749D01*
X485215Y551749D01*
X487215D01*
X488214Y550749D01*
Y549749D01*
X484215D01*
X490213Y551749D02*
Y547750D01*
Y549749D01*
X491213Y550749D01*
X492213Y551749D01*
X493213D01*
X354257Y538748D02*
X358256D01*
X356257D01*
Y532750D01*
X361255D02*
X363255D01*
X364254Y533750D01*
Y535749D01*
X363255Y536749D01*
X361255D01*
X360256Y535749D01*
Y533750D01*
X361255Y532750D01*
X366254Y530751D02*
Y536749D01*
X369253D01*
X370252Y535749D01*
Y533750D01*
X369253Y532750D01*
X366254D01*
X378250Y538748D02*
Y532750D01*
X382248D01*
X385247Y536749D02*
X387247D01*
X388246Y535749D01*
Y532750D01*
X385247D01*
X384248Y533750D01*
X385247Y534749D01*
X388246D01*
X390246Y536749D02*
Y533750D01*
X391246Y532750D01*
X394245D01*
Y531750D01*
X393245Y530751D01*
X392245D01*
X394245Y532750D02*
Y536749D01*
X399243Y532750D02*
X397244D01*
X396244Y533750D01*
Y535749D01*
X397244Y536749D01*
X399243D01*
X400243Y535749D01*
Y534749D01*
X396244D01*
X402242Y536749D02*
Y532750D01*
Y534749D01*
X403242Y535749D01*
X404241Y536749D01*
X405241D01*
X414238Y535749D02*
X418237D01*
X426234Y538748D02*
Y532750D01*
X429233D01*
X430233Y533750D01*
Y534749D01*
X429233Y535749D01*
X426234D01*
X429233D01*
X430233Y536749D01*
Y537748D01*
X429233Y538748D01*
X426234D01*
X433232Y532750D02*
X435231D01*
X436231Y533750D01*
Y535749D01*
X435231Y536749D01*
X433232D01*
X432232Y535749D01*
Y533750D01*
X433232Y532750D01*
X439230Y537748D02*
Y536749D01*
X438230D01*
X440230D01*
X439230D01*
Y533750D01*
X440230Y532750D01*
X444228Y537748D02*
Y536749D01*
X443229D01*
X445228D01*
X444228D01*
Y533750D01*
X445228Y532750D01*
X449227D02*
X451226D01*
X452226Y533750D01*
Y535749D01*
X451226Y536749D01*
X449227D01*
X448227Y535749D01*
Y533750D01*
X449227Y532750D01*
X454225D02*
Y536749D01*
X455225D01*
X456224Y535749D01*
Y532750D01*
Y535749D01*
X457224Y536749D01*
X458224Y535749D01*
Y532750D01*
X466221Y538748D02*
Y532750D01*
X470220D01*
X473219Y536749D02*
X475218D01*
X476218Y535749D01*
Y532750D01*
X473219D01*
X472219Y533750D01*
X473219Y534749D01*
X476218D01*
X478217Y536749D02*
Y533750D01*
X479217Y532750D01*
X482216D01*
Y531750D01*
X481216Y530751D01*
X480217D01*
X482216Y532750D02*
Y536749D01*
X487215Y532750D02*
X485215D01*
X484215Y533750D01*
Y535749D01*
X485215Y536749D01*
X487215D01*
X488214Y535749D01*
Y534749D01*
X484215D01*
X490213Y536749D02*
Y532750D01*
Y534749D01*
X491213Y535749D01*
X492213Y536749D01*
X493213D01*
X354257Y523748D02*
X358256D01*
X356257D01*
Y517750D01*
X361255D02*
X363255D01*
X364254Y518750D01*
Y520749D01*
X363255Y521749D01*
X361255D01*
X360256Y520749D01*
Y518750D01*
X361255Y517750D01*
X366254Y515751D02*
Y521749D01*
X369253D01*
X370252Y520749D01*
Y518750D01*
X369253Y517750D01*
X366254D01*
X378250Y523748D02*
Y517750D01*
X382248D01*
X385247Y521749D02*
X387247D01*
X388246Y520749D01*
Y517750D01*
X385247D01*
X384248Y518750D01*
X385247Y519749D01*
X388246D01*
X390246Y521749D02*
Y518750D01*
X391246Y517750D01*
X394245D01*
Y516750D01*
X393245Y515751D01*
X392245D01*
X394245Y517750D02*
Y521749D01*
X399243Y517750D02*
X397244D01*
X396244Y518750D01*
Y520749D01*
X397244Y521749D01*
X399243D01*
X400243Y520749D01*
Y519749D01*
X396244D01*
X402242Y521749D02*
Y517750D01*
Y519749D01*
X403242Y520749D01*
X404241Y521749D01*
X405241D01*
X414238Y520749D02*
X418237D01*
X426234Y523748D02*
Y517750D01*
X429233D01*
X430233Y518750D01*
Y519749D01*
X429233Y520749D01*
X426234D01*
X429233D01*
X430233Y521749D01*
Y522748D01*
X429233Y523748D01*
X426234D01*
X433232Y517750D02*
X435231D01*
X436231Y518750D01*
Y520749D01*
X435231Y521749D01*
X433232D01*
X432232Y520749D01*
Y518750D01*
X433232Y517750D01*
X439230Y522748D02*
Y521749D01*
X438230D01*
X440230D01*
X439230D01*
Y518750D01*
X440230Y517750D01*
X444228Y522748D02*
Y521749D01*
X443229D01*
X445228D01*
X444228D01*
Y518750D01*
X445228Y517750D01*
X449227D02*
X451226D01*
X452226Y518750D01*
Y520749D01*
X451226Y521749D01*
X449227D01*
X448227Y520749D01*
Y518750D01*
X449227Y517750D01*
X454225D02*
Y521749D01*
X455225D01*
X456224Y520749D01*
Y517750D01*
Y520749D01*
X457224Y521749D01*
X458224Y520749D01*
Y517750D01*
X466221Y523748D02*
Y517750D01*
X470220D01*
X473219Y521749D02*
X475218D01*
X476218Y520749D01*
Y517750D01*
X473219D01*
X472219Y518750D01*
X473219Y519749D01*
X476218D01*
X478217Y521749D02*
Y518750D01*
X479217Y517750D01*
X482216D01*
Y516750D01*
X481216Y515751D01*
X480217D01*
X482216Y517750D02*
Y521749D01*
X487215Y517750D02*
X485215D01*
X484215Y518750D01*
Y520749D01*
X485215Y521749D01*
X487215D01*
X488214Y520749D01*
Y519749D01*
X484215D01*
X490213Y521749D02*
Y517750D01*
Y519749D01*
X491213Y520749D01*
X492213Y521749D01*
X493213D01*
X354257Y508748D02*
X358256D01*
X356257D01*
Y502750D01*
X361255D02*
X363255D01*
X364254Y503750D01*
Y505749D01*
X363255Y506749D01*
X361255D01*
X360256Y505749D01*
Y503750D01*
X361255Y502750D01*
X366254Y500751D02*
Y506749D01*
X369253D01*
X370252Y505749D01*
Y503750D01*
X369253Y502750D01*
X366254D01*
X378250Y508748D02*
Y502750D01*
X382248D01*
X385247Y506749D02*
X387247D01*
X388246Y505749D01*
Y502750D01*
X385247D01*
X384248Y503750D01*
X385247Y504749D01*
X388246D01*
X390246Y506749D02*
Y503750D01*
X391246Y502750D01*
X394245D01*
Y501750D01*
X393245Y500751D01*
X392245D01*
X394245Y502750D02*
Y506749D01*
X399243Y502750D02*
X397244D01*
X396244Y503750D01*
Y505749D01*
X397244Y506749D01*
X399243D01*
X400243Y505749D01*
Y504749D01*
X396244D01*
X402242Y506749D02*
Y502750D01*
Y504749D01*
X403242Y505749D01*
X404241Y506749D01*
X405241D01*
X414238Y505749D02*
X418237D01*
X426234Y508748D02*
Y502750D01*
X429233D01*
X430233Y503750D01*
Y504749D01*
X429233Y505749D01*
X426234D01*
X429233D01*
X430233Y506749D01*
Y507748D01*
X429233Y508748D01*
X426234D01*
X433232Y502750D02*
X435231D01*
X436231Y503750D01*
Y505749D01*
X435231Y506749D01*
X433232D01*
X432232Y505749D01*
Y503750D01*
X433232Y502750D01*
X439230Y507748D02*
Y506749D01*
X438230D01*
X440230D01*
X439230D01*
Y503750D01*
X440230Y502750D01*
X444228Y507748D02*
Y506749D01*
X443229D01*
X445228D01*
X444228D01*
Y503750D01*
X445228Y502750D01*
X449227D02*
X451226D01*
X452226Y503750D01*
Y505749D01*
X451226Y506749D01*
X449227D01*
X448227Y505749D01*
Y503750D01*
X449227Y502750D01*
X454225D02*
Y506749D01*
X455225D01*
X456224Y505749D01*
Y502750D01*
Y505749D01*
X457224Y506749D01*
X458224Y505749D01*
Y502750D01*
X466221Y508748D02*
Y502750D01*
X470220D01*
X473219Y506749D02*
X475218D01*
X476218Y505749D01*
Y502750D01*
X473219D01*
X472219Y503750D01*
X473219Y504749D01*
X476218D01*
X478217Y506749D02*
Y503750D01*
X479217Y502750D01*
X482216D01*
Y501750D01*
X481216Y500751D01*
X480217D01*
X482216Y502750D02*
Y506749D01*
X487215Y502750D02*
X485215D01*
X484215Y503750D01*
Y505749D01*
X485215Y506749D01*
X487215D01*
X488214Y505749D01*
Y504749D01*
X484215D01*
X490213Y506749D02*
Y502750D01*
Y504749D01*
X491213Y505749D01*
X492213Y506749D01*
X493213D01*
X354257Y493748D02*
X358256D01*
X356257D01*
Y487750D01*
X361255D02*
X363255D01*
X364254Y488750D01*
Y490749D01*
X363255Y491749D01*
X361255D01*
X360256Y490749D01*
Y488750D01*
X361255Y487750D01*
X366254Y485751D02*
Y491749D01*
X369253D01*
X370252Y490749D01*
Y488750D01*
X369253Y487750D01*
X366254D01*
X378250Y493748D02*
Y487750D01*
X382248D01*
X385247Y491749D02*
X387247D01*
X388246Y490749D01*
Y487750D01*
X385247D01*
X384248Y488750D01*
X385247Y489749D01*
X388246D01*
X390246Y491749D02*
Y488750D01*
X391246Y487750D01*
X394245D01*
Y486750D01*
X393245Y485751D01*
X392245D01*
X394245Y487750D02*
Y491749D01*
X399243Y487750D02*
X397244D01*
X396244Y488750D01*
Y490749D01*
X397244Y491749D01*
X399243D01*
X400243Y490749D01*
Y489749D01*
X396244D01*
X402242Y491749D02*
Y487750D01*
Y489749D01*
X403242Y490749D01*
X404241Y491749D01*
X405241D01*
X414238Y490749D02*
X418237D01*
X426234Y493748D02*
Y487750D01*
X429233D01*
X430233Y488750D01*
Y489749D01*
X429233Y490749D01*
X426234D01*
X429233D01*
X430233Y491749D01*
Y492748D01*
X429233Y493748D01*
X426234D01*
X433232Y487750D02*
X435231D01*
X436231Y488750D01*
Y490749D01*
X435231Y491749D01*
X433232D01*
X432232Y490749D01*
Y488750D01*
X433232Y487750D01*
X439230Y492748D02*
Y491749D01*
X438230D01*
X440230D01*
X439230D01*
Y488750D01*
X440230Y487750D01*
X444228Y492748D02*
Y491749D01*
X443229D01*
X445228D01*
X444228D01*
Y488750D01*
X445228Y487750D01*
X449227D02*
X451226D01*
X452226Y488750D01*
Y490749D01*
X451226Y491749D01*
X449227D01*
X448227Y490749D01*
Y488750D01*
X449227Y487750D01*
X454225D02*
Y491749D01*
X455225D01*
X456224Y490749D01*
Y487750D01*
Y490749D01*
X457224Y491749D01*
X458224Y490749D01*
Y487750D01*
X466221Y493748D02*
Y487750D01*
X470220D01*
X473219Y491749D02*
X475218D01*
X476218Y490749D01*
Y487750D01*
X473219D01*
X472219Y488750D01*
X473219Y489749D01*
X476218D01*
X478217Y491749D02*
Y488750D01*
X479217Y487750D01*
X482216D01*
Y486750D01*
X481216Y485751D01*
X480217D01*
X482216Y487750D02*
Y491749D01*
X487215Y487750D02*
X485215D01*
X484215Y488750D01*
Y490749D01*
X485215Y491749D01*
X487215D01*
X488214Y490749D01*
Y489749D01*
X484215D01*
X490213Y491749D02*
Y487750D01*
Y489749D01*
X491213Y490749D01*
X492213Y491749D01*
X493213D01*
X354257Y478748D02*
X358256D01*
X356257D01*
Y472750D01*
X361255D02*
X363255D01*
X364254Y473750D01*
Y475749D01*
X363255Y476749D01*
X361255D01*
X360256Y475749D01*
Y473750D01*
X361255Y472750D01*
X366254Y470751D02*
Y476749D01*
X369253D01*
X370252Y475749D01*
Y473750D01*
X369253Y472750D01*
X366254D01*
X378250Y478748D02*
Y472750D01*
X382248D01*
X385247Y476749D02*
X387247D01*
X388246Y475749D01*
Y472750D01*
X385247D01*
X384248Y473750D01*
X385247Y474749D01*
X388246D01*
X390246Y476749D02*
Y473750D01*
X391246Y472750D01*
X394245D01*
Y471750D01*
X393245Y470751D01*
X392245D01*
X394245Y472750D02*
Y476749D01*
X399243Y472750D02*
X397244D01*
X396244Y473750D01*
Y475749D01*
X397244Y476749D01*
X399243D01*
X400243Y475749D01*
Y474749D01*
X396244D01*
X402242Y476749D02*
Y472750D01*
Y474749D01*
X403242Y475749D01*
X404241Y476749D01*
X405241D01*
X414238Y475749D02*
X418237D01*
X426234Y478748D02*
Y472750D01*
X429233D01*
X430233Y473750D01*
Y474749D01*
X429233Y475749D01*
X426234D01*
X429233D01*
X430233Y476749D01*
Y477748D01*
X429233Y478748D01*
X426234D01*
X433232Y472750D02*
X435231D01*
X436231Y473750D01*
Y475749D01*
X435231Y476749D01*
X433232D01*
X432232Y475749D01*
Y473750D01*
X433232Y472750D01*
X439230Y477748D02*
Y476749D01*
X438230D01*
X440230D01*
X439230D01*
Y473750D01*
X440230Y472750D01*
X444228Y477748D02*
Y476749D01*
X443229D01*
X445228D01*
X444228D01*
Y473750D01*
X445228Y472750D01*
X449227D02*
X451226D01*
X452226Y473750D01*
Y475749D01*
X451226Y476749D01*
X449227D01*
X448227Y475749D01*
Y473750D01*
X449227Y472750D01*
X454225D02*
Y476749D01*
X455225D01*
X456224Y475749D01*
Y472750D01*
Y475749D01*
X457224Y476749D01*
X458224Y475749D01*
Y472750D01*
X466221Y478748D02*
Y472750D01*
X470220D01*
X473219Y476749D02*
X475218D01*
X476218Y475749D01*
Y472750D01*
X473219D01*
X472219Y473750D01*
X473219Y474749D01*
X476218D01*
X478217Y476749D02*
Y473750D01*
X479217Y472750D01*
X482216D01*
Y471750D01*
X481216Y470751D01*
X480217D01*
X482216Y472750D02*
Y476749D01*
X487215Y472750D02*
X485215D01*
X484215Y473750D01*
Y475749D01*
X485215Y476749D01*
X487215D01*
X488214Y475749D01*
Y474749D01*
X484215D01*
X490213Y476749D02*
Y472750D01*
Y474749D01*
X491213Y475749D01*
X492213Y476749D01*
X493213D01*
X280877Y547750D02*
Y553748D01*
X283876D01*
X284876Y552748D01*
Y550749D01*
X283876Y549749D01*
X280877D01*
X282877D02*
X284876Y547750D01*
X287875D02*
X289874D01*
X290874Y548750D01*
Y550749D01*
X289874Y551749D01*
X287875D01*
X286875Y550749D01*
Y548750D01*
X287875Y547750D01*
X292873Y551749D02*
Y548750D01*
X293873Y547750D01*
X296872D01*
Y551749D01*
X298871Y547750D02*
Y551749D01*
X301870D01*
X302870Y550749D01*
Y547750D01*
X308868Y553748D02*
Y547750D01*
X305869D01*
X304870Y548750D01*
Y550749D01*
X305869Y551749D01*
X308868D01*
X280877Y532750D02*
Y538748D01*
X283876D01*
X284876Y537748D01*
Y535749D01*
X283876Y534749D01*
X280877D01*
X282877D02*
X284876Y532750D01*
X287875D02*
X289874D01*
X290874Y533750D01*
Y535749D01*
X289874Y536749D01*
X287875D01*
X286875Y535749D01*
Y533750D01*
X287875Y532750D01*
X292873Y536749D02*
Y533750D01*
X293873Y532750D01*
X296872D01*
Y536749D01*
X298871Y532750D02*
Y536749D01*
X301870D01*
X302870Y535749D01*
Y532750D01*
X308868Y538748D02*
Y532750D01*
X305869D01*
X304870Y533750D01*
Y535749D01*
X305869Y536749D01*
X308868D01*
X280877Y517750D02*
Y523748D01*
X283876D01*
X284876Y522748D01*
Y520749D01*
X283876Y519749D01*
X280877D01*
X282877D02*
X284876Y517750D01*
X287875D02*
X289874D01*
X290874Y518750D01*
Y520749D01*
X289874Y521749D01*
X287875D01*
X286875Y520749D01*
Y518750D01*
X287875Y517750D01*
X292873Y521749D02*
Y518750D01*
X293873Y517750D01*
X296872D01*
Y521749D01*
X298871Y517750D02*
Y521749D01*
X301870D01*
X302870Y520749D01*
Y517750D01*
X308868Y523748D02*
Y517750D01*
X305869D01*
X304870Y518750D01*
Y520749D01*
X305869Y521749D01*
X308868D01*
X280877Y502750D02*
Y508748D01*
X283876D01*
X284876Y507748D01*
Y505749D01*
X283876Y504749D01*
X280877D01*
X282877D02*
X284876Y502750D01*
X287875D02*
X289874D01*
X290874Y503750D01*
Y505749D01*
X289874Y506749D01*
X287875D01*
X286875Y505749D01*
Y503750D01*
X287875Y502750D01*
X292873Y506749D02*
Y503750D01*
X293873Y502750D01*
X296872D01*
Y506749D01*
X298871Y502750D02*
Y506749D01*
X301870D01*
X302870Y505749D01*
Y502750D01*
X308868Y508748D02*
Y502750D01*
X305869D01*
X304870Y503750D01*
Y505749D01*
X305869Y506749D01*
X308868D01*
X280877Y487750D02*
Y493748D01*
X283876D01*
X284876Y492748D01*
Y490749D01*
X283876Y489749D01*
X280877D01*
X282877D02*
X284876Y487750D01*
X287875D02*
X289874D01*
X290874Y488750D01*
Y490749D01*
X289874Y491749D01*
X287875D01*
X286875Y490749D01*
Y488750D01*
X287875Y487750D01*
X292873Y491749D02*
Y488750D01*
X293873Y487750D01*
X296872D01*
Y491749D01*
X298871Y487750D02*
Y491749D01*
X301870D01*
X302870Y490749D01*
Y487750D01*
X308868Y493748D02*
Y487750D01*
X305869D01*
X304870Y488750D01*
Y490749D01*
X305869Y491749D01*
X308868D01*
X280877Y472750D02*
Y478748D01*
X283876D01*
X284876Y477748D01*
Y475749D01*
X283876Y474749D01*
X280877D01*
X282877D02*
X284876Y472750D01*
X287875D02*
X289874D01*
X290874Y473750D01*
Y475749D01*
X289874Y476749D01*
X287875D01*
X286875Y475749D01*
Y473750D01*
X287875Y472750D01*
X292873Y476749D02*
Y473750D01*
X293873Y472750D01*
X296872D01*
Y476749D01*
X298871Y472750D02*
Y476749D01*
X301870D01*
X302870Y475749D01*
Y472750D01*
X308868Y478748D02*
Y472750D01*
X305869D01*
X304870Y473750D01*
Y475749D01*
X305869Y476749D01*
X308868D01*
X230290Y547750D02*
Y553748D01*
X233289D01*
X234288Y552748D01*
Y550749D01*
X233289Y549749D01*
X230290D01*
X236288Y553748D02*
X240286D01*
X238287D01*
Y547750D01*
X242286Y553748D02*
Y547750D01*
Y550749D01*
X246285D01*
Y553748D01*
Y547750D01*
X230290Y532750D02*
Y538748D01*
X233289D01*
X234288Y537748D01*
Y535749D01*
X233289Y534749D01*
X230290D01*
X236288Y538748D02*
X240286D01*
X238287D01*
Y532750D01*
X242286Y538748D02*
Y532750D01*
Y535749D01*
X246285D01*
Y538748D01*
Y532750D01*
X230290Y517750D02*
Y523748D01*
X233289D01*
X234288Y522748D01*
Y520749D01*
X233289Y519749D01*
X230290D01*
X236288Y523748D02*
X240286D01*
X238287D01*
Y517750D01*
X242286Y523748D02*
Y517750D01*
Y520749D01*
X246285D01*
Y523748D01*
Y517750D01*
X230290Y502750D02*
Y508748D01*
X233289D01*
X234288Y507748D01*
Y505749D01*
X233289Y504749D01*
X230290D01*
X236288Y508748D02*
X240286D01*
X238287D01*
Y502750D01*
X242286Y508748D02*
Y502750D01*
Y505749D01*
X246285D01*
Y508748D01*
Y502750D01*
X230290Y487750D02*
Y493748D01*
X233289D01*
X234288Y492748D01*
Y490749D01*
X233289Y489749D01*
X230290D01*
X236288Y493748D02*
X240286D01*
X238287D01*
Y487750D01*
X242286Y493748D02*
Y487750D01*
Y490749D01*
X246285D01*
Y493748D01*
Y487750D01*
X230290Y472750D02*
Y478748D01*
X233289D01*
X234288Y477748D01*
Y475749D01*
X233289Y474749D01*
X230290D01*
X236288Y478748D02*
X240286D01*
X238287D01*
Y472750D01*
X242286Y478748D02*
Y472750D01*
Y475749D01*
X246285D01*
Y478748D01*
Y472750D01*
X114324Y547750D02*
X116323D01*
X115323D01*
Y553748D01*
X114324Y552748D01*
X123321Y553748D02*
X119322D01*
Y550749D01*
X121321Y551749D01*
X122321D01*
X123321Y550749D01*
Y548750D01*
X122321Y547750D01*
X120322D01*
X119322Y548750D01*
X125320Y552748D02*
X126320Y553748D01*
X128319D01*
X129319Y552748D01*
Y548750D01*
X128319Y547750D01*
X126320D01*
X125320Y548750D01*
Y552748D01*
X131318Y547750D02*
Y548750D01*
X132318D01*
Y547750D01*
X131318D01*
X136317Y552748D02*
X137316Y553748D01*
X139316D01*
X140315Y552748D01*
Y548750D01*
X139316Y547750D01*
X137316D01*
X136317Y548750D01*
Y552748D01*
X142315D02*
X143314Y553748D01*
X145314D01*
X146313Y552748D01*
Y548750D01*
X145314Y547750D01*
X143314D01*
X142315Y548750D01*
Y552748D01*
X148313Y547750D02*
Y551749D01*
X149312D01*
X150312Y550749D01*
Y547750D01*
Y550749D01*
X151312Y551749D01*
X152311Y550749D01*
Y547750D01*
X154311D02*
X156310D01*
X155310D01*
Y551749D01*
X154311D01*
X159309Y547750D02*
X161308D01*
X160309D01*
Y553748D01*
X159309D01*
X172305Y547750D02*
X170306Y549749D01*
Y551749D01*
X172305Y553748D01*
X175304Y552748D02*
X176304Y553748D01*
X178303D01*
X179303Y552748D01*
Y551749D01*
X178303Y550749D01*
X177303D01*
X178303D01*
X179303Y549749D01*
Y548750D01*
X178303Y547750D01*
X176304D01*
X175304Y548750D01*
X181302Y547750D02*
Y548750D01*
X182302D01*
Y547750D01*
X181302D01*
X186300Y552748D02*
X187300Y553748D01*
X189299D01*
X190299Y552748D01*
Y551749D01*
X189299Y550749D01*
X190299Y549749D01*
Y548750D01*
X189299Y547750D01*
X187300D01*
X186300Y548750D01*
Y549749D01*
X187300Y550749D01*
X186300Y551749D01*
Y552748D01*
X187300Y550749D02*
X189299D01*
X192298Y547750D02*
X194298D01*
X193298D01*
Y553748D01*
X192298Y552748D01*
X197297D02*
X198296Y553748D01*
X200296D01*
X201295Y552748D01*
Y548750D01*
X200296Y547750D01*
X198296D01*
X197297Y548750D01*
Y552748D01*
X203295Y547750D02*
Y551749D01*
X204294D01*
X205294Y550749D01*
Y547750D01*
Y550749D01*
X206294Y551749D01*
X207294Y550749D01*
Y547750D01*
X209293D02*
Y551749D01*
X210293D01*
X211292Y550749D01*
Y547750D01*
Y550749D01*
X212292Y551749D01*
X213292Y550749D01*
Y547750D01*
X215291D02*
X217290Y549749D01*
Y551749D01*
X215291Y553748D01*
X118322Y532750D02*
X114324D01*
X118322Y536749D01*
Y537748D01*
X117323Y538748D01*
X115323D01*
X114324Y537748D01*
X120322D02*
X121321Y538748D01*
X123321D01*
X124320Y537748D01*
Y533750D01*
X123321Y532750D01*
X121321D01*
X120322Y533750D01*
Y537748D01*
X126320D02*
X127320Y538748D01*
X129319D01*
X130318Y537748D01*
Y533750D01*
X129319Y532750D01*
X127320D01*
X126320Y533750D01*
Y537748D01*
X132318Y532750D02*
Y533750D01*
X133317D01*
Y532750D01*
X132318D01*
X137316Y537748D02*
X138316Y538748D01*
X140315D01*
X141315Y537748D01*
Y533750D01*
X140315Y532750D01*
X138316D01*
X137316Y533750D01*
Y537748D01*
X143314D02*
X144314Y538748D01*
X146313D01*
X147313Y537748D01*
Y533750D01*
X146313Y532750D01*
X144314D01*
X143314Y533750D01*
Y537748D01*
X149312Y532750D02*
Y536749D01*
X150312D01*
X151312Y535749D01*
Y532750D01*
Y535749D01*
X152311Y536749D01*
X153311Y535749D01*
Y532750D01*
X155310D02*
X157310D01*
X156310D01*
Y536749D01*
X155310D01*
X160309Y532750D02*
X162308D01*
X161309D01*
Y538748D01*
X160309D01*
X173305Y532750D02*
X171305Y534749D01*
Y536749D01*
X173305Y538748D01*
X180302D02*
X176304D01*
Y535749D01*
X178303Y536749D01*
X179303D01*
X180302Y535749D01*
Y533750D01*
X179303Y532750D01*
X177303D01*
X176304Y533750D01*
X182302Y532750D02*
Y533750D01*
X183301D01*
Y532750D01*
X182302D01*
X187300Y537748D02*
X188300Y538748D01*
X190299D01*
X191299Y537748D01*
Y533750D01*
X190299Y532750D01*
X188300D01*
X187300Y533750D01*
Y537748D01*
X193298D02*
X194298Y538748D01*
X196297D01*
X197297Y537748D01*
Y536749D01*
X196297Y535749D01*
X197297Y534749D01*
Y533750D01*
X196297Y532750D01*
X194298D01*
X193298Y533750D01*
Y534749D01*
X194298Y535749D01*
X193298Y536749D01*
Y537748D01*
X194298Y535749D02*
X196297D01*
X199296Y537748D02*
X200296Y538748D01*
X202295D01*
X203295Y537748D01*
Y533750D01*
X202295Y532750D01*
X200296D01*
X199296Y533750D01*
Y537748D01*
X205294Y532750D02*
Y536749D01*
X206294D01*
X207294Y535749D01*
Y532750D01*
Y535749D01*
X208293Y536749D01*
X209293Y535749D01*
Y532750D01*
X211292D02*
Y536749D01*
X212292D01*
X213292Y535749D01*
Y532750D01*
Y535749D01*
X214291Y536749D01*
X215291Y535749D01*
Y532750D01*
X217290D02*
X219290Y534749D01*
Y536749D01*
X217290Y538748D01*
X114324Y522748D02*
X115323Y523748D01*
X117323D01*
X118322Y522748D01*
Y521749D01*
X117323Y520749D01*
X116323D01*
X117323D01*
X118322Y519749D01*
Y518750D01*
X117323Y517750D01*
X115323D01*
X114324Y518750D01*
X120322Y517750D02*
X122321D01*
X121321D01*
Y523748D01*
X120322Y522748D01*
X125320Y517750D02*
Y518750D01*
X126320D01*
Y517750D01*
X125320D01*
X134317Y523748D02*
X130318D01*
Y520749D01*
X132318Y521749D01*
X133317D01*
X134317Y520749D01*
Y518750D01*
X133317Y517750D01*
X131318D01*
X130318Y518750D01*
X136317Y522748D02*
X137316Y523748D01*
X139316D01*
X140315Y522748D01*
Y518750D01*
X139316Y517750D01*
X137316D01*
X136317Y518750D01*
Y522748D01*
X142315Y517750D02*
Y521749D01*
X143314D01*
X144314Y520749D01*
Y517750D01*
Y520749D01*
X145314Y521749D01*
X146313Y520749D01*
Y517750D01*
X148313D02*
X150312D01*
X149312D01*
Y521749D01*
X148313D01*
X153311Y517750D02*
X155310D01*
X154311D01*
Y523748D01*
X153311D01*
X166307Y517750D02*
X164307Y519749D01*
Y521749D01*
X166307Y523748D01*
X169306Y522748D02*
X170306Y523748D01*
X172305D01*
X173305Y522748D01*
Y518750D01*
X172305Y517750D01*
X170306D01*
X169306Y518750D01*
Y522748D01*
X175304Y517750D02*
Y518750D01*
X176304D01*
Y517750D01*
X175304D01*
X180302Y522748D02*
X181302Y523748D01*
X183301D01*
X184301Y522748D01*
Y521749D01*
X183301Y520749D01*
X184301Y519749D01*
Y518750D01*
X183301Y517750D01*
X181302D01*
X180302Y518750D01*
Y519749D01*
X181302Y520749D01*
X180302Y521749D01*
Y522748D01*
X181302Y520749D02*
X183301D01*
X186300Y522748D02*
X187300Y523748D01*
X189299D01*
X190299Y522748D01*
Y518750D01*
X189299Y517750D01*
X187300D01*
X186300Y518750D01*
Y522748D01*
X192298D02*
X193298Y523748D01*
X195298D01*
X196297Y522748D01*
Y518750D01*
X195298Y517750D01*
X193298D01*
X192298Y518750D01*
Y522748D01*
X198296Y517750D02*
Y521749D01*
X199296D01*
X200296Y520749D01*
Y517750D01*
Y520749D01*
X201295Y521749D01*
X202295Y520749D01*
Y517750D01*
X204294D02*
Y521749D01*
X205294D01*
X206294Y520749D01*
Y517750D01*
Y520749D01*
X207294Y521749D01*
X208293Y520749D01*
Y517750D01*
X210293D02*
X212292Y519749D01*
Y521749D01*
X210293Y523748D01*
X114324Y507748D02*
X115323Y508748D01*
X117323D01*
X118322Y507748D01*
Y506749D01*
X117323Y505749D01*
X116323D01*
X117323D01*
X118322Y504749D01*
Y503750D01*
X117323Y502750D01*
X115323D01*
X114324Y503750D01*
X124320Y508748D02*
X120322D01*
Y505749D01*
X122321Y506749D01*
X123321D01*
X124320Y505749D01*
Y503750D01*
X123321Y502750D01*
X121321D01*
X120322Y503750D01*
X126320Y502750D02*
Y503750D01*
X127320D01*
Y502750D01*
X126320D01*
X131318Y507748D02*
X132318Y508748D01*
X134317D01*
X135317Y507748D01*
Y503750D01*
X134317Y502750D01*
X132318D01*
X131318Y503750D01*
Y507748D01*
X137316D02*
X138316Y508748D01*
X140315D01*
X141315Y507748D01*
Y503750D01*
X140315Y502750D01*
X138316D01*
X137316Y503750D01*
Y507748D01*
X143314Y502750D02*
Y506749D01*
X144314D01*
X145314Y505749D01*
Y502750D01*
Y505749D01*
X146313Y506749D01*
X147313Y505749D01*
Y502750D01*
X149312D02*
X151312D01*
X150312D01*
Y506749D01*
X149312D01*
X154311Y502750D02*
X156310D01*
X155310D01*
Y508748D01*
X154311D01*
X167306Y502750D02*
X165307Y504749D01*
Y506749D01*
X167306Y508748D01*
X170306Y507748D02*
X171305Y508748D01*
X173305D01*
X174304Y507748D01*
Y503750D01*
X173305Y502750D01*
X171305D01*
X170306Y503750D01*
Y507748D01*
X176304Y502750D02*
Y503750D01*
X177303D01*
Y502750D01*
X176304D01*
X181302Y507748D02*
X182302Y508748D01*
X184301D01*
X185301Y507748D01*
Y506749D01*
X184301Y505749D01*
X185301Y504749D01*
Y503750D01*
X184301Y502750D01*
X182302D01*
X181302Y503750D01*
Y504749D01*
X182302Y505749D01*
X181302Y506749D01*
Y507748D01*
X182302Y505749D02*
X184301D01*
X187300Y507748D02*
X188300Y508748D01*
X190299D01*
X191299Y507748D01*
Y506749D01*
X190299Y505749D01*
X191299Y504749D01*
Y503750D01*
X190299Y502750D01*
X188300D01*
X187300Y503750D01*
Y504749D01*
X188300Y505749D01*
X187300Y506749D01*
Y507748D01*
X188300Y505749D02*
X190299D01*
X193298Y503750D02*
X194298Y502750D01*
X196297D01*
X197297Y503750D01*
Y507748D01*
X196297Y508748D01*
X194298D01*
X193298Y507748D01*
Y506749D01*
X194298Y505749D01*
X197297D01*
X199296Y502750D02*
Y506749D01*
X200296D01*
X201295Y505749D01*
Y502750D01*
Y505749D01*
X202295Y506749D01*
X203295Y505749D01*
Y502750D01*
X205294D02*
Y506749D01*
X206294D01*
X207294Y505749D01*
Y502750D01*
Y505749D01*
X208293Y506749D01*
X209293Y505749D01*
Y502750D01*
X211292D02*
X213292Y504749D01*
Y506749D01*
X211292Y508748D01*
X114324Y492748D02*
X115323Y493748D01*
X117323D01*
X118322Y492748D01*
Y491749D01*
X117323Y490749D01*
X116323D01*
X117323D01*
X118322Y489749D01*
Y488750D01*
X117323Y487750D01*
X115323D01*
X114324Y488750D01*
X124320Y493748D02*
X120322D01*
Y490749D01*
X122321Y491749D01*
X123321D01*
X124320Y490749D01*
Y488750D01*
X123321Y487750D01*
X121321D01*
X120322Y488750D01*
X126320Y487750D02*
Y488750D01*
X127320D01*
Y487750D01*
X126320D01*
X131318Y488750D02*
X132318Y487750D01*
X134317D01*
X135317Y488750D01*
Y492748D01*
X134317Y493748D01*
X132318D01*
X131318Y492748D01*
Y491749D01*
X132318Y490749D01*
X135317D01*
X137316Y492748D02*
X138316Y493748D01*
X140315D01*
X141315Y492748D01*
Y491749D01*
X140315Y490749D01*
X141315Y489749D01*
Y488750D01*
X140315Y487750D01*
X138316D01*
X137316Y488750D01*
Y489749D01*
X138316Y490749D01*
X137316Y491749D01*
Y492748D01*
X138316Y490749D02*
X140315D01*
X143314Y487750D02*
Y491749D01*
X144314D01*
X145314Y490749D01*
Y487750D01*
Y490749D01*
X146313Y491749D01*
X147313Y490749D01*
Y487750D01*
X149312D02*
X151312D01*
X150312D01*
Y491749D01*
X149312D01*
X154311Y487750D02*
X156310D01*
X155310D01*
Y493748D01*
X154311D01*
X167306Y487750D02*
X165307Y489749D01*
Y491749D01*
X167306Y493748D01*
X170306Y492748D02*
X171305Y493748D01*
X173305D01*
X174304Y492748D01*
Y488750D01*
X173305Y487750D01*
X171305D01*
X170306Y488750D01*
Y492748D01*
X176304Y487750D02*
Y488750D01*
X177303D01*
Y487750D01*
X176304D01*
X181302Y488750D02*
X182302Y487750D01*
X184301D01*
X185301Y488750D01*
Y492748D01*
X184301Y493748D01*
X182302D01*
X181302Y492748D01*
Y491749D01*
X182302Y490749D01*
X185301D01*
X187300Y487750D02*
X189299D01*
X188300D01*
Y493748D01*
X187300Y492748D01*
X195298Y487750D02*
Y493748D01*
X192298Y490749D01*
X196297D01*
X198296Y487750D02*
Y491749D01*
X199296D01*
X200296Y490749D01*
Y487750D01*
Y490749D01*
X201295Y491749D01*
X202295Y490749D01*
Y487750D01*
X204294D02*
Y491749D01*
X205294D01*
X206294Y490749D01*
Y487750D01*
Y490749D01*
X207294Y491749D01*
X208293Y490749D01*
Y487750D01*
X210293D02*
X212292Y489749D01*
Y491749D01*
X210293Y493748D01*
X117323Y472750D02*
Y478748D01*
X114324Y475749D01*
X118322D01*
X120322Y477748D02*
X121321Y478748D01*
X123321D01*
X124320Y477748D01*
Y473750D01*
X123321Y472750D01*
X121321D01*
X120322Y473750D01*
Y477748D01*
X126320Y472750D02*
Y473750D01*
X127320D01*
Y472750D01*
X126320D01*
X131318Y477748D02*
X132318Y478748D01*
X134317D01*
X135317Y477748D01*
Y473750D01*
X134317Y472750D01*
X132318D01*
X131318Y473750D01*
Y477748D01*
X137316D02*
X138316Y478748D01*
X140315D01*
X141315Y477748D01*
Y473750D01*
X140315Y472750D01*
X138316D01*
X137316Y473750D01*
Y477748D01*
X143314Y472750D02*
Y476749D01*
X144314D01*
X145314Y475749D01*
Y472750D01*
Y475749D01*
X146313Y476749D01*
X147313Y475749D01*
Y472750D01*
X149312D02*
X151312D01*
X150312D01*
Y476749D01*
X149312D01*
X154311Y472750D02*
X156310D01*
X155310D01*
Y478748D01*
X154311D01*
X167306Y472750D02*
X165307Y474749D01*
Y476749D01*
X167306Y478748D01*
X170306Y472750D02*
X172305D01*
X171305D01*
Y478748D01*
X170306Y477748D01*
X175304Y472750D02*
Y473750D01*
X176304D01*
Y472750D01*
X175304D01*
X180302Y477748D02*
X181302Y478748D01*
X183301D01*
X184301Y477748D01*
Y473750D01*
X183301Y472750D01*
X181302D01*
X180302Y473750D01*
Y477748D01*
X186300Y472750D02*
X188300D01*
X187300D01*
Y478748D01*
X186300Y477748D01*
X195298Y478748D02*
X193298Y477748D01*
X191299Y475749D01*
Y473750D01*
X192298Y472750D01*
X194298D01*
X195298Y473750D01*
Y474749D01*
X194298Y475749D01*
X191299D01*
X197297Y472750D02*
Y476749D01*
X198296D01*
X199296Y475749D01*
Y472750D01*
Y475749D01*
X200296Y476749D01*
X201295Y475749D01*
Y472750D01*
X203295D02*
Y476749D01*
X204294D01*
X205294Y475749D01*
Y472750D01*
Y475749D01*
X206294Y476749D01*
X207294Y475749D01*
Y472750D01*
X209293D02*
X211292Y474749D01*
Y476749D01*
X209293Y478748D01*
X60338Y463748D02*
X64336D01*
Y462748D01*
X60338Y458750D01*
Y457750D01*
X69335D02*
Y463748D01*
X66336Y460749D01*
X70334D01*
X78332Y463748D02*
X82331D01*
X80331D01*
Y457750D01*
X85330D02*
X87329D01*
X88328Y458750D01*
Y460749D01*
X87329Y461749D01*
X85330D01*
X84330Y460749D01*
Y458750D01*
X85330Y457750D01*
X91328Y462748D02*
Y461749D01*
X90328D01*
X92327D01*
X91328D01*
Y458750D01*
X92327Y457750D01*
X96326Y461749D02*
X98325D01*
X99325Y460749D01*
Y457750D01*
X96326D01*
X95326Y458750D01*
X96326Y459749D01*
X99325D01*
X101324Y457750D02*
X103324D01*
X102324D01*
Y463748D01*
X101324D01*
X64336Y547750D02*
X60338D01*
X64336Y551749D01*
Y552748D01*
X63337Y553748D01*
X61337D01*
X60338Y552748D01*
X64336Y532750D02*
X60338D01*
X64336Y536749D01*
Y537748D01*
X63337Y538748D01*
X61337D01*
X60338Y537748D01*
Y522748D02*
X61337Y523748D01*
X63337D01*
X64336Y522748D01*
Y521749D01*
X63337Y520749D01*
X62337D01*
X63337D01*
X64336Y519749D01*
Y518750D01*
X63337Y517750D01*
X61337D01*
X60338Y518750D01*
X64336Y508748D02*
X60338D01*
Y505749D01*
X62337Y506749D01*
X63337D01*
X64336Y505749D01*
Y503750D01*
X63337Y502750D01*
X61337D01*
X60338Y503750D01*
Y492748D02*
X61337Y493748D01*
X63337D01*
X64336Y492748D01*
Y491749D01*
X63337Y490749D01*
X62337D01*
X63337D01*
X64336Y489749D01*
Y488750D01*
X63337Y487750D01*
X61337D01*
X60338Y488750D01*
X66336Y492748D02*
X67335Y493748D01*
X69335D01*
X70334Y492748D01*
Y488750D01*
X69335Y487750D01*
X67335D01*
X66336Y488750D01*
Y492748D01*
X60338Y477748D02*
X61337Y478748D01*
X63337D01*
X64336Y477748D01*
Y476749D01*
X63337Y475749D01*
X62337D01*
X63337D01*
X64336Y474749D01*
Y473750D01*
X63337Y472750D01*
X61337D01*
X60338Y473750D01*
X70334Y472750D02*
X66336D01*
X70334Y476749D01*
Y477748D01*
X69335Y478748D01*
X67335D01*
X66336Y477748D01*
D29*
X590000Y335000D02*
G03*
X590000Y335000I-2500J0D01*
G01*
X415000D02*
G03*
X415000Y335000I-2500J0D01*
G01*
X722500Y230250D02*
X723750D01*
X722500D02*
Y232750D01*
X723750D01*
Y234000D01*
X726250D01*
Y232750D02*
Y234000D01*
Y232750D02*
X727500D01*
Y230250D02*
Y232750D01*
X726250Y230250D02*
X727500D01*
X726250Y229000D02*
Y230250D01*
X723750Y229000D02*
X726250D01*
X723750D02*
Y230250D01*
X679000Y264000D02*
X681500Y269000D01*
X676500D02*
X681500D01*
X676500D02*
X679000Y264000D01*
X288750Y205650D02*
X290000Y204400D01*
X287500Y205650D02*
X288750D01*
X287500D02*
X288750Y206900D01*
X287500Y208150D02*
X288750Y206900D01*
X287500Y208150D02*
X288750D01*
X290000Y209400D01*
X291250Y208150D01*
X292500D01*
X291250Y206900D02*
X292500Y208150D01*
X291250Y206900D02*
X292500Y205650D01*
X291250D02*
X292500D01*
X290000Y204400D02*
X291250Y205650D01*
X708750D02*
X710000Y204400D01*
X707500Y205650D02*
X708750D01*
X707500D02*
X708750Y206900D01*
X707500Y208150D02*
X708750Y206900D01*
X707500Y208150D02*
X708750D01*
X710000Y209400D01*
X711250Y208150D01*
X712500D01*
X711250Y206900D02*
X712500Y208150D01*
X711250Y206900D02*
X712500Y205650D01*
X711250D02*
X712500D01*
X710000Y204400D02*
X711250Y205650D01*
X204358Y218211D02*
X206858Y223211D01*
X201858D02*
X206858D01*
X201858D02*
X204358Y218211D01*
X212019Y211784D02*
X214519Y216784D01*
X209519D02*
X214519D01*
X209519D02*
X212019Y211784D01*
X219679Y205356D02*
X222179Y210356D01*
X217179D02*
X222179D01*
X217179D02*
X219679Y205356D01*
X227340Y198928D02*
X229840Y203928D01*
X224840D02*
X229840D01*
X224840D02*
X227340Y198928D01*
X235000Y192500D02*
X237500Y197500D01*
X232500D02*
X237500D01*
X232500D02*
X235000Y192500D01*
X775000Y252500D02*
X777500Y257500D01*
X772500D02*
X777500D01*
X772500D02*
X775000Y252500D01*
X766340Y257500D02*
X768840Y262500D01*
X763840D02*
X768840D01*
X763840D02*
X766340Y257500D01*
X757679Y262500D02*
X760179Y267500D01*
X755179D02*
X760179D01*
X755179D02*
X757679Y262500D01*
X749019Y267500D02*
X751519Y272500D01*
X746519D02*
X751519D01*
X746519D02*
X749019Y267500D01*
X740359Y272500D02*
X742859Y277500D01*
X737859D02*
X742859D01*
X737859D02*
X740359Y272500D01*
X731699Y277500D02*
X734199Y282500D01*
X729199D02*
X734199D01*
X729199D02*
X731699Y277500D01*
X858706Y169681D02*
X863706D01*
Y174681D01*
X858706D02*
X863706D01*
X858706Y169681D02*
Y174681D01*
X864442Y161489D02*
X869442D01*
Y166489D01*
X864442D02*
X869442D01*
X864442Y161489D02*
Y166489D01*
X870178Y153298D02*
X875178D01*
Y158298D01*
X870178D02*
X875178D01*
X870178Y153298D02*
Y158298D01*
X875913Y145106D02*
X880913D01*
Y150106D01*
X875913D02*
X880913D01*
X875913Y145106D02*
Y150106D01*
X881649Y136915D02*
X886649D01*
Y141915D01*
X881649D02*
X886649D01*
X881649Y136915D02*
Y141915D01*
X887385Y128723D02*
X892385D01*
Y133723D01*
X887385D02*
X892385D01*
X887385Y128723D02*
Y133723D01*
X893121Y120532D02*
X898121D01*
Y125532D01*
X893121D02*
X898121D01*
X893121Y120532D02*
Y125532D01*
X898856Y112340D02*
X903856D01*
Y117340D01*
X898856D02*
X903856D01*
X898856Y112340D02*
Y117340D01*
X904592Y104149D02*
X909592D01*
Y109149D01*
X904592D02*
X909592D01*
X904592Y104149D02*
Y109149D01*
X910328Y95957D02*
X915328D01*
Y100957D01*
X910328D02*
X915328D01*
X910328Y95957D02*
Y100957D01*
X916064Y87765D02*
X921064D01*
Y92765D01*
X916064D02*
X921064D01*
X916064Y87765D02*
Y92765D01*
X921799Y79574D02*
X926799D01*
Y84574D01*
X921799D02*
X926799D01*
X921799Y79574D02*
Y84574D01*
X927535Y71382D02*
X932535D01*
Y76382D01*
X927535D02*
X932535D01*
X927535Y71382D02*
Y76382D01*
X933271Y63191D02*
X938271D01*
Y68191D01*
X933271D02*
X938271D01*
X933271Y63191D02*
Y68191D01*
X939007Y54999D02*
X944007D01*
Y59999D01*
X939007D02*
X944007D01*
X939007Y54999D02*
Y59999D01*
X889858Y20585D02*
X894858D01*
Y25585D01*
X889858D02*
X894858D01*
X889858Y20585D02*
Y25585D01*
X884122Y28776D02*
X889122D01*
Y33776D01*
X884122D02*
X889122D01*
X884122Y28776D02*
Y33776D01*
X878386Y36968D02*
X883386D01*
Y41968D01*
X878386D02*
X883386D01*
X878386Y36968D02*
Y41968D01*
X872650Y45159D02*
X877650D01*
Y50159D01*
X872650D02*
X877650D01*
X872650Y45159D02*
Y50159D01*
X866915Y53351D02*
X871915D01*
Y58351D01*
X866915D02*
X871915D01*
X866915Y53351D02*
Y58351D01*
X861179Y61542D02*
X866179D01*
Y66542D01*
X861179D02*
X866179D01*
X861179Y61542D02*
Y66542D01*
X855443Y69734D02*
X860443D01*
Y74734D01*
X855443D02*
X860443D01*
X855443Y69734D02*
Y74734D01*
X849707Y77925D02*
X854707D01*
Y82925D01*
X849707D02*
X854707D01*
X849707Y77925D02*
Y82925D01*
X843972Y86117D02*
X848972D01*
Y91117D01*
X843972D02*
X848972D01*
X843972Y86117D02*
Y91117D01*
X838236Y94308D02*
X843236D01*
Y99308D01*
X838236D02*
X843236D01*
X838236Y94308D02*
Y99308D01*
X832500Y102500D02*
X837500D01*
Y107500D01*
X832500D02*
X837500D01*
X832500Y102500D02*
Y107500D01*
X826764Y110692D02*
X831764D01*
Y115692D01*
X826764D02*
X831764D01*
X826764Y110692D02*
Y115692D01*
X821028Y118883D02*
X826028D01*
Y123883D01*
X821028D02*
X826028D01*
X821028Y118883D02*
Y123883D01*
X815293Y127075D02*
X820293D01*
Y132075D01*
X815293D02*
X820293D01*
X815293Y127075D02*
Y132075D01*
X809557Y135266D02*
X814557D01*
Y140266D01*
X809557D02*
X814557D01*
X809557Y135266D02*
Y140266D01*
X305000Y312500D02*
X307500Y317500D01*
X302500D02*
X307500D01*
X302500D02*
X305000Y312500D01*
X315000D02*
X317500Y317500D01*
X312500D02*
X317500D01*
X312500D02*
X315000Y312500D01*
X325000D02*
X327500Y317500D01*
X322500D02*
X327500D01*
X322500D02*
X325000Y312500D01*
X335000D02*
X337500Y317500D01*
X332500D02*
X337500D01*
X332500D02*
X335000Y312500D01*
X345000D02*
X347500Y317500D01*
X342500D02*
X347500D01*
X342500D02*
X345000Y312500D01*
X355000D02*
X357500Y317500D01*
X352500D02*
X357500D01*
X352500D02*
X355000Y312500D01*
X365000D02*
X367500Y317500D01*
X362500D02*
X367500D01*
X362500D02*
X365000Y312500D01*
X375000D02*
X377500Y317500D01*
X372500D02*
X377500D01*
X372500D02*
X375000Y312500D01*
X694319Y312324D02*
X696819Y317324D01*
X691819D02*
X696819D01*
X691819D02*
X694319Y312324D01*
X684659Y314912D02*
X687159Y319912D01*
X682159D02*
X687159D01*
X682159D02*
X684659Y314912D01*
X675000Y317500D02*
X677500Y322500D01*
X672500D02*
X677500D01*
X672500D02*
X675000Y317500D01*
X665341Y320088D02*
X667841Y325088D01*
X662841D02*
X667841D01*
X662841D02*
X665341Y320088D01*
X655681Y322676D02*
X658181Y327676D01*
X653181D02*
X658181D01*
X653181D02*
X655681Y322676D01*
X646022Y325265D02*
X648522Y330265D01*
X643522D02*
X648522D01*
X643522D02*
X646022Y325265D01*
X636363Y327853D02*
X638863Y332853D01*
X633863D02*
X638863D01*
X633863D02*
X636363Y327853D01*
X625000Y222500D02*
X627500Y227500D01*
X622500D02*
X627500D01*
X622500D02*
X625000Y222500D01*
Y232500D02*
X627500Y237500D01*
X622500D02*
X627500D01*
X622500D02*
X625000Y232500D01*
Y242500D02*
X627500Y247500D01*
X622500D02*
X627500D01*
X622500D02*
X625000Y242500D01*
Y252500D02*
X627500Y257500D01*
X622500D02*
X627500D01*
X622500D02*
X625000Y252500D01*
Y262500D02*
X627500Y267500D01*
X622500D02*
X627500D01*
X622500D02*
X625000Y262500D01*
X756000Y210187D02*
X757250D01*
X756000D02*
Y212687D01*
X757250D01*
Y213937D01*
X759750D01*
Y212687D02*
Y213937D01*
Y212687D02*
X761000D01*
Y210187D02*
Y212687D01*
X759750Y210187D02*
X761000D01*
X759750Y208937D02*
Y210187D01*
X757250Y208937D02*
X759750D01*
X757250D02*
Y210187D01*
X756000Y202313D02*
X757250D01*
X756000D02*
Y204813D01*
X757250D01*
Y206063D01*
X759750D01*
Y204813D02*
Y206063D01*
Y204813D02*
X761000D01*
Y202313D02*
Y204813D01*
X759750Y202313D02*
X761000D01*
X759750Y201063D02*
Y202313D01*
X757250Y201063D02*
X759750D01*
X757250D02*
Y202313D01*
X836000Y210813D02*
X837250D01*
X836000D02*
Y213313D01*
X837250D01*
Y214563D01*
X839750D01*
Y213313D02*
Y214563D01*
Y213313D02*
X841000D01*
Y210813D02*
Y213313D01*
X839750Y210813D02*
X841000D01*
X839750Y209563D02*
Y210813D01*
X837250Y209563D02*
X839750D01*
X837250D02*
Y210813D01*
X836000Y218687D02*
X837250D01*
X836000D02*
Y221187D01*
X837250D01*
Y222437D01*
X839750D01*
Y221187D02*
Y222437D01*
Y221187D02*
X841000D01*
Y218687D02*
Y221187D01*
X839750Y218687D02*
X841000D01*
X839750Y217437D02*
Y218687D01*
X837250Y217437D02*
X839750D01*
X837250D02*
Y218687D01*
X808068Y213068D02*
X810568Y214318D01*
X813068Y213068D01*
X811818Y215568D02*
X813068Y213068D01*
X811818Y215568D02*
X813068Y218068D01*
X810568Y216818D02*
X813068Y218068D01*
X808068D02*
X810568Y216818D01*
X808068Y218068D02*
X809318Y215568D01*
X808068Y213068D02*
X809318Y215568D01*
X802500Y207500D02*
X805000Y208750D01*
X807500Y207500D01*
X806250Y210000D02*
X807500Y207500D01*
X806250Y210000D02*
X807500Y212500D01*
X805000Y211250D02*
X807500Y212500D01*
X802500D02*
X805000Y211250D01*
X802500Y212500D02*
X803750Y210000D01*
X802500Y207500D02*
X803750Y210000D01*
X796932Y201932D02*
X799432Y203182D01*
X801932Y201932D01*
X800682Y204432D02*
X801932Y201932D01*
X800682Y204432D02*
X801932Y206932D01*
X799432Y205682D02*
X801932Y206932D01*
X796932D02*
X799432Y205682D01*
X796932Y206932D02*
X798182Y204432D01*
X796932Y201932D02*
X798182Y204432D01*
D30*
X750Y558250D02*
X1096844D01*
X750Y468250D02*
X1096844D01*
X750Y453250D02*
X1096844D01*
Y573250D01*
X750D02*
X1096844D01*
X750Y453250D02*
Y573250D01*
X958983Y453250D02*
Y573250D01*
X825622Y453250D02*
Y573250D01*
X740246Y453250D02*
Y573250D01*
X633277Y453250D02*
Y573250D01*
X558697Y453250D02*
Y573250D01*
X499713Y453250D02*
Y573250D01*
X349758Y453250D02*
Y573250D01*
X276377Y453250D02*
Y573250D01*
X225790Y453250D02*
Y573250D01*
X109824Y453250D02*
Y573250D01*
X55838Y453250D02*
Y573250D01*
D31*
X963483Y569948D02*
Y562750D01*
Y566349D01*
X968282D01*
Y569948D01*
Y562750D01*
X971881D02*
X974280D01*
X975479Y563950D01*
Y566349D01*
X974280Y567548D01*
X971881D01*
X970681Y566349D01*
Y563950D01*
X971881Y562750D01*
X977879D02*
X980278D01*
X979078D01*
Y569948D01*
X977879D01*
X987475Y562750D02*
X985076D01*
X983877Y563950D01*
Y566349D01*
X985076Y567548D01*
X987475D01*
X988675Y566349D01*
Y565149D01*
X983877D01*
X998272Y569948D02*
X1003070D01*
X1000671D01*
Y562750D01*
X1006669D02*
X1009068D01*
X1010268Y563950D01*
Y566349D01*
X1009068Y567548D01*
X1006669D01*
X1005470Y566349D01*
Y563950D01*
X1006669Y562750D01*
X1012667D02*
X1015067D01*
X1013867D01*
Y569948D01*
X1012667D01*
X1022264Y562750D02*
X1019865D01*
X1018665Y563950D01*
Y566349D01*
X1019865Y567548D01*
X1022264D01*
X1023464Y566349D01*
Y565149D01*
X1018665D01*
X1025863Y567548D02*
Y562750D01*
Y565149D01*
X1027063Y566349D01*
X1028262Y567548D01*
X1029462D01*
X1034260D02*
X1036660D01*
X1037859Y566349D01*
Y562750D01*
X1034260D01*
X1033061Y563950D01*
X1034260Y565149D01*
X1037859D01*
X1040258Y562750D02*
Y567548D01*
X1043857D01*
X1045057Y566349D01*
Y562750D01*
X1052254Y567548D02*
X1048656D01*
X1047456Y566349D01*
Y563950D01*
X1048656Y562750D01*
X1052254D01*
X1058253D02*
X1055853D01*
X1054654Y563950D01*
Y566349D01*
X1055853Y567548D01*
X1058253D01*
X1059452Y566349D01*
Y565149D01*
X1054654D01*
X1071448Y562750D02*
X1069049Y565149D01*
Y567548D01*
X1071448Y569948D01*
X1075047Y566349D02*
X1079846D01*
X1082245Y562750D02*
X1084644Y565149D01*
Y567548D01*
X1082245Y569948D01*
X830122D02*
Y562750D01*
Y566349D01*
X834921D01*
Y569948D01*
Y562750D01*
X838520D02*
X840919D01*
X842119Y563950D01*
Y566349D01*
X840919Y567548D01*
X838520D01*
X837320Y566349D01*
Y563950D01*
X838520Y562750D01*
X844518D02*
X846917D01*
X845717D01*
Y569948D01*
X844518D01*
X854115Y562750D02*
X851715D01*
X850516Y563950D01*
Y566349D01*
X851715Y567548D01*
X854115D01*
X855314Y566349D01*
Y565149D01*
X850516D01*
X864911Y569948D02*
X869710D01*
X867310D01*
Y562750D01*
X873308D02*
X875708D01*
X876907Y563950D01*
Y566349D01*
X875708Y567548D01*
X873308D01*
X872109Y566349D01*
Y563950D01*
X873308Y562750D01*
X879307D02*
X881706D01*
X880506D01*
Y569948D01*
X879307D01*
X888903Y562750D02*
X886504D01*
X885305Y563950D01*
Y566349D01*
X886504Y567548D01*
X888903D01*
X890103Y566349D01*
Y565149D01*
X885305D01*
X892502Y567548D02*
Y562750D01*
Y565149D01*
X893702Y566349D01*
X894901Y567548D01*
X896101D01*
X900900D02*
X903299D01*
X904498Y566349D01*
Y562750D01*
X900900D01*
X899700Y563950D01*
X900900Y565149D01*
X904498D01*
X906898Y562750D02*
Y567548D01*
X910497D01*
X911696Y566349D01*
Y562750D01*
X918894Y567548D02*
X915295D01*
X914095Y566349D01*
Y563950D01*
X915295Y562750D01*
X918894D01*
X924892D02*
X922493D01*
X921293Y563950D01*
Y566349D01*
X922493Y567548D01*
X924892D01*
X926091Y566349D01*
Y565149D01*
X921293D01*
X938087Y562750D02*
X935688Y565149D01*
Y567548D01*
X938087Y569948D01*
X941686Y566349D02*
X946485D01*
X944086Y568748D02*
Y563950D01*
X948884Y562750D02*
X951283Y565149D01*
Y567548D01*
X948884Y569948D01*
X744746D02*
Y562750D01*
X748345D01*
X749545Y563950D01*
Y568748D01*
X748345Y569948D01*
X744746D01*
X755543Y562750D02*
X753143D01*
X751944Y563950D01*
Y566349D01*
X753143Y567548D01*
X755543D01*
X756742Y566349D01*
Y565149D01*
X751944D01*
X759141Y562750D02*
X762740D01*
X763940Y563950D01*
X762740Y565149D01*
X760341D01*
X759141Y566349D01*
X760341Y567548D01*
X763940D01*
X771138D02*
X767539D01*
X766339Y566349D01*
Y563950D01*
X767539Y562750D01*
X771138D01*
X773537Y567548D02*
Y562750D01*
Y565149D01*
X774736Y566349D01*
X775936Y567548D01*
X777136D01*
X780734Y562750D02*
X783134D01*
X781934D01*
Y567548D01*
X780734D01*
X786732Y560351D02*
Y567548D01*
X790331D01*
X791531Y566349D01*
Y563950D01*
X790331Y562750D01*
X786732D01*
X795130Y568748D02*
Y567548D01*
X793930D01*
X796329D01*
X795130D01*
Y563950D01*
X796329Y562750D01*
X799928D02*
X802328D01*
X801128D01*
Y567548D01*
X799928D01*
X807126Y562750D02*
X809525D01*
X810725Y563950D01*
Y566349D01*
X809525Y567548D01*
X807126D01*
X805926Y566349D01*
Y563950D01*
X807126Y562750D01*
X813124D02*
Y567548D01*
X816723D01*
X817922Y566349D01*
Y562750D01*
X637777Y569948D02*
X642576D01*
X640176D01*
Y562750D01*
X648574D02*
X646174D01*
X644975Y563950D01*
Y566349D01*
X646174Y567548D01*
X648574D01*
X649773Y566349D01*
Y565149D01*
X644975D01*
X652173Y562750D02*
Y567548D01*
X653372D01*
X654572Y566349D01*
Y562750D01*
Y566349D01*
X655771Y567548D01*
X656971Y566349D01*
Y562750D01*
X659370Y560351D02*
Y567548D01*
X662969D01*
X664169Y566349D01*
Y563950D01*
X662969Y562750D01*
X659370D01*
X666568D02*
X668967D01*
X667767D01*
Y569948D01*
X666568D01*
X673766Y567548D02*
X676165D01*
X677364Y566349D01*
Y562750D01*
X673766D01*
X672566Y563950D01*
X673766Y565149D01*
X677364D01*
X680963Y568748D02*
Y567548D01*
X679764D01*
X682163D01*
X680963D01*
Y563950D01*
X682163Y562750D01*
X689361D02*
X686961D01*
X685762Y563950D01*
Y566349D01*
X686961Y567548D01*
X689361D01*
X690560Y566349D01*
Y565149D01*
X685762D01*
X563197Y562750D02*
Y569948D01*
X566796D01*
X567996Y568748D01*
Y566349D01*
X566796Y565149D01*
X563197D01*
X571595Y567548D02*
X573994D01*
X575194Y566349D01*
Y562750D01*
X571595D01*
X570395Y563950D01*
X571595Y565149D01*
X575194D01*
X582391Y569948D02*
Y562750D01*
X578792D01*
X577593Y563950D01*
Y566349D01*
X578792Y567548D01*
X582391D01*
X596786Y568748D02*
X595587Y569948D01*
X593188D01*
X591988Y568748D01*
Y567548D01*
X593188Y566349D01*
X595587D01*
X596786Y565149D01*
Y563950D01*
X595587Y562750D01*
X593188D01*
X591988Y563950D01*
X599186Y569948D02*
Y562750D01*
Y566349D01*
X600385Y567548D01*
X602785D01*
X603984Y566349D01*
Y562750D01*
X607583Y567548D02*
X609982D01*
X611182Y566349D01*
Y562750D01*
X607583D01*
X606383Y563950D01*
X607583Y565149D01*
X611182D01*
X613581Y560351D02*
Y567548D01*
X617180D01*
X618379Y566349D01*
Y563950D01*
X617180Y562750D01*
X613581D01*
X624378D02*
X621978D01*
X620779Y563950D01*
Y566349D01*
X621978Y567548D01*
X624378D01*
X625577Y566349D01*
Y565149D01*
X620779D01*
X504213Y569948D02*
Y565149D01*
X506612Y562750D01*
X509011Y565149D01*
Y569948D01*
X511410Y562750D02*
X513809D01*
X512610D01*
Y567548D01*
X511410D01*
X518608D02*
X521007D01*
X522207Y566349D01*
Y562750D01*
X518608D01*
X517408Y563950D01*
X518608Y565149D01*
X522207D01*
X524606Y562750D02*
X529404Y567548D01*
X531804Y562750D02*
Y569948D01*
X535402D01*
X536602Y568748D01*
Y566349D01*
X535402Y565149D01*
X531804D01*
X540201Y567548D02*
X542600D01*
X543800Y566349D01*
Y562750D01*
X540201D01*
X539001Y563950D01*
X540201Y565149D01*
X543800D01*
X550997Y569948D02*
Y562750D01*
X547399D01*
X546199Y563950D01*
Y566349D01*
X547399Y567548D01*
X550997D01*
X354257Y569948D02*
Y562750D01*
X357856D01*
X359056Y563950D01*
Y568748D01*
X357856Y569948D01*
X354257D01*
X361455Y567548D02*
Y562750D01*
Y565149D01*
X362655Y566349D01*
X363854Y567548D01*
X365054D01*
X368653Y562750D02*
X371052D01*
X369852D01*
Y567548D01*
X368653D01*
X374651Y562750D02*
X377050D01*
X375851D01*
Y569948D01*
X374651D01*
X380649Y562750D02*
X383048D01*
X381849D01*
Y569948D01*
X380649D01*
X393845D02*
Y562750D01*
X398643D01*
X402242Y567548D02*
X404641D01*
X405841Y566349D01*
Y562750D01*
X402242D01*
X401042Y563950D01*
X402242Y565149D01*
X405841D01*
X408240Y567548D02*
Y563950D01*
X409440Y562750D01*
X413038D01*
Y561550D01*
X411839Y560351D01*
X410639D01*
X413038Y562750D02*
Y567548D01*
X419036Y562750D02*
X416637D01*
X415438Y563950D01*
Y566349D01*
X416637Y567548D01*
X419036D01*
X420236Y566349D01*
Y565149D01*
X415438D01*
X422635Y567548D02*
Y562750D01*
Y565149D01*
X423835Y566349D01*
X425035Y567548D01*
X426234D01*
X437031Y562750D02*
Y569948D01*
X440629D01*
X441829Y568748D01*
Y566349D01*
X440629Y565149D01*
X437031D01*
X445428Y567548D02*
X447827D01*
X449027Y566349D01*
Y562750D01*
X445428D01*
X444228Y563950D01*
X445428Y565149D01*
X449027D01*
X451426Y562750D02*
X453825D01*
X452626D01*
Y567548D01*
X451426D01*
X457424D02*
Y562750D01*
Y565149D01*
X458624Y566349D01*
X459823Y567548D01*
X461023D01*
X280877Y569948D02*
Y562750D01*
Y566349D01*
X285676D01*
Y569948D01*
Y562750D01*
X289275D02*
X291674D01*
X292873Y563950D01*
Y566349D01*
X291674Y567548D01*
X289275D01*
X288075Y566349D01*
Y563950D01*
X289275Y562750D01*
X295273D02*
X297672D01*
X296472D01*
Y569948D01*
X295273D01*
X304870Y562750D02*
X302470D01*
X301271Y563950D01*
Y566349D01*
X302470Y567548D01*
X304870D01*
X306069Y566349D01*
Y565149D01*
X301271D01*
X315666Y569948D02*
X320464D01*
X318065D01*
Y562750D01*
X322864Y567548D02*
Y563950D01*
X324063Y562750D01*
X327662D01*
Y561550D01*
X326463Y560351D01*
X325263D01*
X327662Y562750D02*
Y567548D01*
X330061Y560351D02*
Y567548D01*
X333660D01*
X334860Y566349D01*
Y563950D01*
X333660Y562750D01*
X330061D01*
X340858D02*
X338459D01*
X337259Y563950D01*
Y566349D01*
X338459Y567548D01*
X340858D01*
X342057Y566349D01*
Y565149D01*
X337259D01*
X230290Y562750D02*
Y569948D01*
X233889D01*
X235088Y568748D01*
Y566349D01*
X233889Y565149D01*
X230290D01*
X237487Y562750D02*
X239887D01*
X238687D01*
Y569948D01*
X237487D01*
X244685Y567548D02*
X247084D01*
X248284Y566349D01*
Y562750D01*
X244685D01*
X243485Y563950D01*
X244685Y565149D01*
X248284D01*
X251883Y568748D02*
Y567548D01*
X250683D01*
X253082D01*
X251883D01*
Y563950D01*
X253082Y562750D01*
X260280D02*
X257881D01*
X256681Y563950D01*
Y566349D01*
X257881Y567548D01*
X260280D01*
X261480Y566349D01*
Y565149D01*
X256681D01*
X268677Y569948D02*
Y562750D01*
X265078D01*
X263879Y563950D01*
Y566349D01*
X265078Y567548D01*
X268677D01*
X114324Y569948D02*
Y562750D01*
Y566349D01*
X119122D01*
Y569948D01*
Y562750D01*
X122721D02*
X125120D01*
X126320Y563950D01*
Y566349D01*
X125120Y567548D01*
X122721D01*
X121521Y566349D01*
Y563950D01*
X122721Y562750D01*
X128719D02*
X131118D01*
X129919D01*
Y569948D01*
X128719D01*
X138316Y562750D02*
X135917D01*
X134717Y563950D01*
Y566349D01*
X135917Y567548D01*
X138316D01*
X139515Y566349D01*
Y565149D01*
X134717D01*
X153911Y568748D02*
X152711Y569948D01*
X150312D01*
X149112Y568748D01*
Y567548D01*
X150312Y566349D01*
X152711D01*
X153911Y565149D01*
Y563950D01*
X152711Y562750D01*
X150312D01*
X149112Y563950D01*
X156310Y562750D02*
X158709D01*
X157510D01*
Y567548D01*
X156310D01*
X162308D02*
X167107D01*
X162308Y562750D01*
X167107D01*
X173105D02*
X170705D01*
X169506Y563950D01*
Y566349D01*
X170705Y567548D01*
X173105D01*
X174304Y566349D01*
Y565149D01*
X169506D01*
X65136Y568748D02*
X63936Y569948D01*
X61537D01*
X60338Y568748D01*
Y563950D01*
X61537Y562750D01*
X63936D01*
X65136Y563950D01*
X68735Y562750D02*
X71134D01*
X72334Y563950D01*
Y566349D01*
X71134Y567548D01*
X68735D01*
X67535Y566349D01*
Y563950D01*
X68735Y562750D01*
X74733Y567548D02*
Y563950D01*
X75933Y562750D01*
X79531D01*
Y567548D01*
X81931Y562750D02*
Y567548D01*
X85529D01*
X86729Y566349D01*
Y562750D01*
X90328Y568748D02*
Y567548D01*
X89128D01*
X91527D01*
X90328D01*
Y563950D01*
X91527Y562750D01*
X14548Y568748D02*
X13349Y569948D01*
X10950D01*
X9750Y568748D01*
Y567548D01*
X10950Y566349D01*
X13349D01*
X14548Y565149D01*
Y563950D01*
X13349Y562750D01*
X10950D01*
X9750Y563950D01*
X16948Y567548D02*
Y563950D01*
X18147Y562750D01*
X21746D01*
Y561550D01*
X20547Y560351D01*
X19347D01*
X21746Y562750D02*
Y567548D01*
X24145Y562750D02*
Y567548D01*
X25345D01*
X26545Y566349D01*
Y562750D01*
Y566349D01*
X27744Y567548D01*
X28944Y566349D01*
Y562750D01*
X31343Y569948D02*
Y562750D01*
X34942D01*
X36141Y563950D01*
Y565149D01*
Y566349D01*
X34942Y567548D01*
X31343D01*
X39740Y562750D02*
X42140D01*
X43339Y563950D01*
Y566349D01*
X42140Y567548D01*
X39740D01*
X38541Y566349D01*
Y563950D01*
X39740Y562750D01*
X45738D02*
X48138D01*
X46938D01*
Y569948D01*
X45738D01*
M02*
