G04*
G04 #@! TF.GenerationSoftware,Altium Limited,Altium Designer,23.5.1 (21)*
G04*
G04 Layer_Color=65535*
%FSLAX25Y25*%
%MOIN*%
G70*
G04*
G04 #@! TF.SameCoordinates,FF9463CB-EB02-43C4-9E9F-CA5E416C3207*
G04*
G04*
G04 #@! TF.FilePolarity,Positive*
G04*
G01*
G75*
%ADD10C,0.00984*%
%ADD11C,0.00787*%
%ADD12C,0.01000*%
D10*
X806675Y219952D02*
G03*
X806675Y219952I-492J0D01*
G01*
X806518Y133543D02*
G03*
X806518Y133543I-492J0D01*
G01*
D11*
X810777Y221901D02*
X816901Y215777D01*
X793099Y204223D02*
X810777Y221901D01*
X793099Y204223D02*
X799223Y198099D01*
X816901Y215777D01*
X722343Y245532D02*
Y249468D01*
X727657Y245532D02*
Y249468D01*
X696843Y246031D02*
Y249969D01*
X702157Y246031D02*
Y249969D01*
X842831Y207437D02*
Y224563D01*
X834169Y207437D02*
X842831D01*
X834169D02*
Y224563D01*
X842831D01*
X754169Y198937D02*
Y216063D01*
X762831D01*
Y198937D02*
Y216063D01*
X754169Y198937D02*
X762831D01*
X799358Y147185D02*
X856698Y187336D01*
X958508Y41936D01*
X901167Y1786D02*
X958508Y41936D01*
X799358Y147185D02*
X901167Y1786D01*
D12*
X570000Y270000D02*
X630000D01*
X570000Y220000D02*
Y270000D01*
Y220000D02*
X630000D01*
Y270000D01*
X630239Y326817D02*
X632827Y336476D01*
X700442Y318359D01*
X697854Y308700D02*
X700442Y318359D01*
X630239Y326817D02*
X697854Y308700D01*
X300000Y255000D02*
Y320000D01*
Y255000D02*
X380000D01*
Y320000D01*
X300000D02*
X380000D01*
X390000Y315000D02*
X610000D01*
X390000D02*
Y355000D01*
X610000Y315000D02*
Y355000D01*
X390000D02*
X610000D01*
X722704Y279420D02*
X735204Y301071D01*
X791495Y268571D01*
X778995Y246920D02*
X791495Y268571D01*
X722704Y279420D02*
X778995Y246920D01*
X110054Y162774D02*
X180761Y247039D01*
X110054Y162774D02*
X194319Y92068D01*
X265026Y176333D01*
X180761Y247039D02*
X265026Y176333D01*
X793535Y224621D02*
X792121Y223207D01*
Y221793D01*
X793535Y221793D01*
X794949Y223207D01*
X793888Y220026D02*
X794595Y219319D01*
X795302Y219319D01*
X796009Y220026D01*
Y220733D01*
X795302Y221440D01*
X794595Y221440D01*
X793888Y220733D01*
Y220026D01*
X797069Y219672D02*
X796009Y218612D01*
Y217905D01*
X797069Y216845D01*
X798483Y218259D01*
X799897Y217552D02*
X799543Y217198D01*
X799190Y217552D01*
X799897Y216845D01*
X799543Y217198D01*
X798483Y216138D01*
Y215431D01*
X786681Y218267D02*
X787388D01*
X788095Y217560D01*
X788095Y216853D01*
X787742Y216500D01*
X787035D01*
X786681Y216853D01*
X787035Y216500D01*
X787035Y215793D01*
X786681Y215440D01*
X785975Y215440D01*
X785268Y216147D01*
Y216853D01*
X787035Y214379D02*
X787388Y214733D01*
X787742Y214379D01*
X787388Y214026D01*
X787035Y214379D01*
X790569D02*
X791276D01*
X791983Y213672D01*
Y212966D01*
X791630Y212612D01*
X790923D01*
X790569Y212966D01*
X790923Y212612D01*
X790923Y211905D01*
X790569Y211552D01*
X789862Y211552D01*
X789155Y212259D01*
Y212966D01*
X793043Y212612D02*
X791630Y211198D01*
Y209785D01*
X793043D01*
X794457Y211198D01*
X800949Y227707D02*
X799535Y229121D01*
X798475Y228060D01*
X799535Y227707D01*
X799888Y227353D01*
Y226647D01*
X799181Y225940D01*
X798475Y225940D01*
X797768Y226646D01*
Y227353D01*
X801655Y227000D02*
X800242Y225586D01*
Y224172D01*
X801655D01*
X803069Y225586D01*
X732501Y249999D02*
X738499D01*
Y247000D01*
X737499Y246000D01*
X735500D01*
X734500Y247000D01*
Y249999D01*
Y247999D02*
X732501Y246000D01*
Y244001D02*
Y242001D01*
Y243001D01*
X738499D01*
X737499Y244001D01*
X707001Y251498D02*
X712999D01*
Y248499D01*
X711999Y247500D01*
X710000D01*
X709000Y248499D01*
Y251498D01*
Y249499D02*
X707001Y247500D01*
Y241502D02*
Y245500D01*
X711000Y241502D01*
X711999D01*
X712999Y242501D01*
Y244501D01*
X711999Y245500D01*
X852999Y207502D02*
X847001D01*
Y210501D01*
X848001Y211500D01*
X850000D01*
X851000Y210501D01*
Y207502D01*
Y209501D02*
X852999Y211500D01*
X848001Y213500D02*
X847001Y214499D01*
Y216499D01*
X848001Y217498D01*
X849000D01*
X850000Y216499D01*
Y215499D01*
Y216499D01*
X851000Y217498D01*
X851999D01*
X852999Y216499D01*
Y214499D01*
X851999Y213500D01*
X744001Y215498D02*
X749999D01*
Y212499D01*
X748999Y211500D01*
X747000D01*
X746000Y212499D01*
Y215498D01*
Y213499D02*
X744001Y211500D01*
Y206501D02*
X749999D01*
X747000Y209500D01*
Y205502D01*
X324992Y325500D02*
Y331498D01*
X326991Y329499D01*
X328991Y331498D01*
Y325500D01*
X330990D02*
Y331498D01*
X333989D01*
X334988Y330499D01*
Y328499D01*
X333989Y327500D01*
X330990D01*
X336988Y331498D02*
Y326500D01*
X337988Y325500D01*
X339987D01*
X340987Y326500D01*
Y331498D01*
X795156Y187276D02*
X794449Y187276D01*
X793742Y186569D01*
Y185862D01*
X795156Y184449D01*
X795862D01*
X796569Y185156D01*
X796569Y185862D01*
X797983Y186569D02*
X798690Y187276D01*
X798690Y187983D01*
X797983Y188690D01*
X797276D01*
X796569Y187983D01*
X796569Y187276D01*
X797276Y186569D01*
X797983D01*
X799750Y188337D02*
X798337Y189750D01*
X798690Y190104D01*
X799397Y190104D01*
X800457Y189043D01*
X799397Y190104D01*
X799397Y190811D01*
X800104D01*
X801164Y189750D01*
X802578D02*
X800457Y191871D01*
X801517Y192931D01*
X802224D01*
X802931Y192224D01*
Y191517D01*
X801871Y190457D01*
X802931Y194345D02*
X803638Y195052D01*
X804345D01*
X805405Y193992D01*
X804345Y192931D01*
X803638D01*
Y193638D01*
X804698Y194698D01*
X806112D02*
X807172Y195759D01*
Y196466D01*
X806466D01*
X805759Y195759D01*
X805052D01*
X805052Y196466D01*
X806112Y197526D01*
X808233Y196819D02*
X809293Y197879D01*
X809293Y198586D01*
X808586Y198586D01*
X807879Y197879D01*
X807172D01*
Y198586D01*
X808233Y199647D01*
X810353Y203181D02*
X811767Y201767D01*
X813181D01*
X813181Y203181D01*
X811767Y204595D01*
X814948Y203534D02*
X815655Y204241D01*
X815655Y204948D01*
X814948Y205655D01*
X814241D01*
X813534Y204948D01*
X813534Y204241D01*
X814241Y203534D01*
X814948D01*
X816715Y205302D02*
X817422Y206009D01*
X817069Y205655D01*
X814948Y207776D01*
X814595Y207422D01*
X817069Y209189D02*
X817422Y208836D01*
X817069Y208483D01*
X817776Y209189D01*
X817422Y208836D01*
X818482Y207776D01*
X819189D01*
Y210603D02*
X819896Y211310D01*
X820603D01*
X821663Y210250D01*
X820603Y209189D01*
X819896D01*
Y209896D01*
X820957Y210957D01*
X823784D02*
X824138Y211310D01*
X824138Y212017D01*
X822370Y213784D01*
X821310Y212724D01*
Y212017D01*
X822017Y211310D01*
X822724D01*
X823784Y212370D01*
X825551Y214138D02*
X824844Y213431D01*
X824138D01*
X823431Y214138D01*
X823431Y214844D01*
X824138Y215551D01*
X824844D01*
X825198Y215198D01*
X823784Y213784D01*
X638924Y345712D02*
X637889Y341849D01*
X640464Y341160D01*
X641752Y340814D02*
X643039Y340470D01*
X642395Y340642D01*
X643085Y343217D01*
X642442Y343390D01*
X648580Y343125D02*
X647545Y339262D01*
X645614Y339780D01*
X645143Y340596D01*
X645488Y341883D01*
X646304Y342355D01*
X648235Y341837D01*
X650167Y341320D02*
X651454Y340975D01*
X651925Y340158D01*
X651408Y338227D01*
X649477Y338745D01*
X649005Y339561D01*
X649822Y340032D01*
X651753Y339515D01*
X653385Y340457D02*
X652695Y337882D01*
X653040Y339170D01*
X653857Y339641D01*
X654673Y340112D01*
X655316Y339940D01*
X661455Y339675D02*
X660420Y335812D01*
X662053Y336755D01*
X662995Y335122D01*
X664030Y338985D01*
X664283Y334777D02*
X665570Y334432D01*
X664926Y334605D01*
X665616Y337180D01*
X664973Y337352D01*
X668191Y336490D02*
X667501Y333915D01*
X667846Y335202D01*
X668663Y335674D01*
X669479Y336145D01*
X670123Y335972D01*
X673295Y332363D02*
X672008Y332708D01*
X671536Y333524D01*
X671881Y334811D01*
X672697Y335282D01*
X673985Y334938D01*
X674456Y334121D01*
X674284Y333477D01*
X671709Y334168D01*
X679089Y330810D02*
X680124Y334672D01*
X681066Y333040D01*
X682699Y333983D01*
X681664Y330120D01*
X683595Y329603D02*
X684882Y329258D01*
X685699Y329729D01*
X686044Y331016D01*
X685572Y331833D01*
X684285Y332178D01*
X683469Y331706D01*
X683124Y330419D01*
X683595Y329603D01*
X687504Y331315D02*
X686986Y329384D01*
X687457Y328568D01*
X689389Y328050D01*
X690079Y330625D01*
X690676Y327705D02*
X691366Y330280D01*
X693297Y329763D01*
X693769Y328946D01*
X693251Y327015D01*
X696045Y329716D02*
X695872Y329073D01*
X695229Y329245D01*
X696516Y328900D01*
X695872Y329073D01*
X695355Y327142D01*
X695826Y326325D01*
X748574Y302369D02*
X746075Y298041D01*
X748239Y296791D01*
X749377Y297096D01*
X749794Y297817D01*
X749489Y298955D01*
X747324Y300205D01*
X749489Y298955D01*
X750627Y299260D01*
X751043Y299982D01*
X750738Y301120D01*
X748574Y302369D01*
X750403Y295542D02*
X751846Y294708D01*
X751125Y295125D01*
X753624Y299454D01*
X752903Y299870D01*
X755677Y296345D02*
X754427Y294180D01*
X754732Y293042D01*
X756897Y291793D01*
X758563Y294678D01*
X760504Y289710D02*
X759061Y290543D01*
X758756Y291681D01*
X759589Y293124D01*
X760727Y293429D01*
X762170Y292596D01*
X762475Y291458D01*
X762058Y290736D01*
X759173Y292403D01*
X765472Y291651D02*
X765056Y290930D01*
X764334Y291346D01*
X765777Y290513D01*
X765056Y290930D01*
X763806Y288765D01*
X764111Y287627D01*
X766997Y285961D02*
X768440Y285128D01*
X769578Y285433D01*
X770411Y286876D01*
X770106Y288014D01*
X768663Y288847D01*
X767525Y288542D01*
X766692Y287099D01*
X766997Y285961D01*
X771326Y283462D02*
X772769Y282629D01*
X773907Y282934D01*
X774740Y284377D01*
X774435Y285515D01*
X772992Y286348D01*
X771854Y286043D01*
X771021Y284600D01*
X771326Y283462D01*
X777737Y284570D02*
X777320Y283849D01*
X776599Y284265D01*
X778042Y283432D01*
X777320Y283849D01*
X776071Y281684D01*
X776376Y280546D01*
X781039Y283626D02*
X778540Y279297D01*
X779790Y281461D01*
X780928Y281766D01*
X782371Y280933D01*
X782676Y279795D01*
X781426Y277631D01*
X209717Y236447D02*
X209594Y237855D01*
X208062Y239141D01*
X206654Y239017D01*
X204083Y235954D01*
X204207Y234546D01*
X205738Y233261D01*
X207147Y233384D01*
X208432Y234915D01*
X206900Y236201D01*
X208036Y231333D02*
X211891Y235928D01*
X214189Y234000D01*
X214312Y232592D01*
X213027Y231060D01*
X211618Y230937D01*
X209321Y232864D01*
X218907Y228736D02*
X218783Y230145D01*
X217252Y231430D01*
X215843Y231306D01*
X215201Y230541D01*
X215324Y229132D01*
X216856Y227847D01*
X216979Y226439D01*
X216336Y225673D01*
X214928Y225550D01*
X213396Y226835D01*
X213273Y228243D01*
X641498Y254005D02*
X642498Y255005D01*
Y257004D01*
X641498Y258004D01*
X637500D01*
X636500Y257004D01*
Y255005D01*
X637500Y254005D01*
X636500Y251006D02*
Y249007D01*
X637500Y248007D01*
X639499D01*
X640499Y249007D01*
Y251006D01*
X639499Y252006D01*
X637500D01*
X636500Y251006D01*
Y246008D02*
X640499D01*
Y245008D01*
X639499Y244009D01*
X636500D01*
X639499D01*
X640499Y243009D01*
X639499Y242009D01*
X636500D01*
X634501Y240010D02*
X640499D01*
Y237011D01*
X639499Y236011D01*
X637500D01*
X636500Y237011D01*
Y240010D01*
X640499Y233012D02*
Y231013D01*
X639499Y230013D01*
X636500D01*
Y233012D01*
X637500Y234012D01*
X638499Y233012D01*
Y230013D01*
X636500Y228014D02*
Y225015D01*
X637500Y224015D01*
X638499Y225015D01*
Y227014D01*
X639499Y228014D01*
X640499Y227014D01*
Y224015D01*
X636500Y222016D02*
Y219017D01*
X637500Y218017D01*
X638499Y219017D01*
Y221016D01*
X639499Y222016D01*
X640499Y221016D01*
Y218017D01*
X803347Y155778D02*
X801054Y159054D01*
X801544Y161838D01*
X804329Y161347D01*
X806623Y158072D01*
X804902Y160528D01*
X801627Y158235D01*
X805967Y162494D02*
X808260Y159218D01*
X807114Y160856D01*
X807359Y162249D01*
X807605Y163641D01*
X808424Y164214D01*
X813009Y169866D02*
X816449Y164952D01*
X813993Y163232D01*
X812600Y163478D01*
X811454Y165115D01*
X811699Y166508D01*
X814156Y168228D01*
X815794Y169375D02*
X817514Y166918D01*
X818906Y166673D01*
X821363Y168393D01*
X819069Y171668D01*
X823000Y169539D02*
X824638Y170686D01*
X823819Y170113D01*
X821526Y173388D01*
X820707Y172815D01*
X827095Y172406D02*
X824801Y175682D01*
X827258Y177402D01*
X828650Y177157D01*
X830370Y174700D01*
X832827Y176420D02*
X834465Y177567D01*
X834710Y178959D01*
X833564Y180597D01*
X832171Y180842D01*
X830534Y179696D01*
X830288Y178303D01*
X831435Y176666D01*
X832827Y176420D01*
M02*
