G04*
G04 #@! TF.GenerationSoftware,Altium Limited,Altium Designer,23.5.1 (21)*
G04*
G04 Layer_Color=16711935*
%FSLAX25Y25*%
%MOIN*%
G70*
G04*
G04 #@! TF.SameCoordinates,FF9463CB-EB02-43C4-9E9F-CA5E416C3207*
G04*
G04*
G04 #@! TF.FilePolarity,Positive*
G04*
G01*
G75*
%ADD11C,0.00787*%
%ADD27C,0.00394*%
D11*
X810777Y221901D02*
X816901Y215777D01*
X793099Y204223D02*
X810777Y221901D01*
X793099Y204223D02*
X799223Y198099D01*
X816901Y215777D01*
X842831Y207437D02*
Y224563D01*
X834169Y207437D02*
X842831D01*
X834169D02*
Y224563D01*
X842831D01*
X754169Y198937D02*
Y216063D01*
X762831D01*
Y198937D02*
Y216063D01*
X754169Y198937D02*
X762831D01*
X799358Y147185D02*
X856698Y187336D01*
X958508Y41936D01*
X901167Y1786D02*
X958508Y41936D01*
X799358Y147185D02*
X901167Y1786D01*
D27*
X721752Y241102D02*
Y253898D01*
X728248Y241102D02*
Y253898D01*
X721752Y241102D02*
X728248D01*
X721752Y253898D02*
X728248D01*
X696252Y241602D02*
Y254398D01*
X702748Y241602D02*
Y254398D01*
X696252Y241602D02*
X702748D01*
X696252Y254398D02*
X702748D01*
M02*
