G04*
G04 #@! TF.GenerationSoftware,Altium Limited,Altium Designer,23.5.1 (21)*
G04*
G04 Layer_Physical_Order=4*
G04 Layer_Color=6736896*
%FSLAX25Y25*%
%MOIN*%
G70*
G04*
G04 #@! TF.SameCoordinates,FF9463CB-EB02-43C4-9E9F-CA5E416C3207*
G04*
G04*
G04 #@! TF.FilePolarity,Positive*
G04*
G01*
G75*
%ADD12C,0.01000*%
%ADD15C,0.05118*%
%ADD16P,0.07238X4X270.0*%
%ADD17R,0.05118X0.05118*%
%ADD19P,0.07873X4X80.0*%
%ADD20C,0.05567*%
%ADD24C,0.06000*%
%ADD25C,0.05000*%
D12*
X725000Y224823D02*
Y231500D01*
Y224823D02*
X812057Y137766D01*
X809692Y96808D02*
X840736D01*
X760500Y146000D02*
X809692Y96808D01*
X742000Y146000D02*
X760500D01*
X677000Y211000D02*
X742000Y146000D01*
X609672Y211000D02*
X677000D01*
X597172Y223500D02*
X609672Y211000D01*
X249412Y223500D02*
X597172D01*
X238823Y227000D02*
X596500D01*
X610500Y213000D02*
X679000D01*
X596500Y227000D02*
X610500Y213000D01*
X227340Y201428D02*
X249412Y223500D01*
X219679Y207856D02*
X238823Y227000D01*
X679000Y213000D02*
X743500Y148500D01*
X761500D01*
X805000Y105000D01*
X835000D01*
X749019Y235602D02*
X817793Y166829D01*
Y129575D02*
Y166829D01*
X749019Y235602D02*
Y270000D01*
D15*
X799432Y204432D02*
D03*
X805000Y210000D02*
D03*
X838500Y212063D02*
D03*
X758500Y211437D02*
D03*
D16*
X810568Y215568D02*
D03*
D17*
X838500Y219937D02*
D03*
X758500Y203563D02*
D03*
D19*
X812057Y137766D02*
D03*
D20*
X817793Y129575D02*
D03*
X823528Y121383D02*
D03*
X829264Y113192D02*
D03*
X835000Y105000D02*
D03*
X840736Y96808D02*
D03*
X846472Y88617D02*
D03*
X852207Y80425D02*
D03*
X857943Y72234D02*
D03*
X863679Y64042D02*
D03*
X869415Y55851D02*
D03*
X875150Y47659D02*
D03*
X880886Y39468D02*
D03*
X886622Y31276D02*
D03*
X892358Y23085D02*
D03*
X941507Y57499D02*
D03*
X935771Y65691D02*
D03*
X930035Y73882D02*
D03*
X924299Y82074D02*
D03*
X918564Y90265D02*
D03*
X912828Y98457D02*
D03*
X907092Y106649D02*
D03*
X901356Y114840D02*
D03*
X895621Y123032D02*
D03*
X889885Y131223D02*
D03*
X884149Y139415D02*
D03*
X878413Y147606D02*
D03*
X872678Y155798D02*
D03*
X866942Y163989D02*
D03*
X861206Y172181D02*
D03*
D24*
X625000Y265000D02*
D03*
Y255000D02*
D03*
Y245000D02*
D03*
Y235000D02*
D03*
Y225000D02*
D03*
X636363Y330353D02*
D03*
X646022Y327765D02*
D03*
X655681Y325176D02*
D03*
X665341Y322588D02*
D03*
X675000Y320000D02*
D03*
X684659Y317412D02*
D03*
X694319Y314824D02*
D03*
X375000Y315000D02*
D03*
X365000D02*
D03*
X355000D02*
D03*
X345000D02*
D03*
X335000D02*
D03*
X325000D02*
D03*
X315000D02*
D03*
X305000D02*
D03*
X731699Y280000D02*
D03*
X740359Y275000D02*
D03*
X749019Y270000D02*
D03*
X757679Y265000D02*
D03*
X766340Y260000D02*
D03*
X775000Y255000D02*
D03*
X235000Y195000D02*
D03*
X227340Y201428D02*
D03*
X219679Y207856D02*
D03*
X212019Y214284D02*
D03*
X204358Y220711D02*
D03*
X710000Y206900D02*
D03*
X290000D02*
D03*
X412500Y335000D02*
D03*
X587500D02*
D03*
D25*
X679000Y266500D02*
D03*
X725000Y231500D02*
D03*
M02*
